%TF.GenerationSoftware,KiCad,Pcbnew,9.0.3*%
%TF.CreationDate,2025-07-27T20:55:45+02:00*%
%TF.ProjectId,Pololu Zumo 32U4 controller shield,506f6c6f-6c75-4205-9a75-6d6f20333255,rev?*%
%TF.SameCoordinates,Original*%
%TF.FileFunction,Legend,Top*%
%TF.FilePolarity,Positive*%
%FSLAX46Y46*%
G04 Gerber Fmt 4.6, Leading zero omitted, Abs format (unit mm)*
G04 Created by KiCad (PCBNEW 9.0.3) date 2025-07-27 20:55:45*
%MOMM*%
%LPD*%
G01*
G04 APERTURE LIST*
%ADD10C,0.100000*%
%ADD11C,0.150000*%
%ADD12C,0.000000*%
%ADD13C,0.120000*%
G04 APERTURE END LIST*
D10*
X120303884Y-74262475D02*
X120303884Y-73262475D01*
X120303884Y-73262475D02*
X120541979Y-73262475D01*
X120541979Y-73262475D02*
X120684836Y-73310094D01*
X120684836Y-73310094D02*
X120780074Y-73405332D01*
X120780074Y-73405332D02*
X120827693Y-73500570D01*
X120827693Y-73500570D02*
X120875312Y-73691046D01*
X120875312Y-73691046D02*
X120875312Y-73833903D01*
X120875312Y-73833903D02*
X120827693Y-74024379D01*
X120827693Y-74024379D02*
X120780074Y-74119617D01*
X120780074Y-74119617D02*
X120684836Y-74214856D01*
X120684836Y-74214856D02*
X120541979Y-74262475D01*
X120541979Y-74262475D02*
X120303884Y-74262475D01*
X121684836Y-74214856D02*
X121589598Y-74262475D01*
X121589598Y-74262475D02*
X121399122Y-74262475D01*
X121399122Y-74262475D02*
X121303884Y-74214856D01*
X121303884Y-74214856D02*
X121256265Y-74119617D01*
X121256265Y-74119617D02*
X121256265Y-73738665D01*
X121256265Y-73738665D02*
X121303884Y-73643427D01*
X121303884Y-73643427D02*
X121399122Y-73595808D01*
X121399122Y-73595808D02*
X121589598Y-73595808D01*
X121589598Y-73595808D02*
X121684836Y-73643427D01*
X121684836Y-73643427D02*
X121732455Y-73738665D01*
X121732455Y-73738665D02*
X121732455Y-73833903D01*
X121732455Y-73833903D02*
X121256265Y-73929141D01*
X122113408Y-74214856D02*
X122208646Y-74262475D01*
X122208646Y-74262475D02*
X122399122Y-74262475D01*
X122399122Y-74262475D02*
X122494360Y-74214856D01*
X122494360Y-74214856D02*
X122541979Y-74119617D01*
X122541979Y-74119617D02*
X122541979Y-74071998D01*
X122541979Y-74071998D02*
X122494360Y-73976760D01*
X122494360Y-73976760D02*
X122399122Y-73929141D01*
X122399122Y-73929141D02*
X122256265Y-73929141D01*
X122256265Y-73929141D02*
X122161027Y-73881522D01*
X122161027Y-73881522D02*
X122113408Y-73786284D01*
X122113408Y-73786284D02*
X122113408Y-73738665D01*
X122113408Y-73738665D02*
X122161027Y-73643427D01*
X122161027Y-73643427D02*
X122256265Y-73595808D01*
X122256265Y-73595808D02*
X122399122Y-73595808D01*
X122399122Y-73595808D02*
X122494360Y-73643427D01*
X122970551Y-74262475D02*
X122970551Y-73595808D01*
X122970551Y-73262475D02*
X122922932Y-73310094D01*
X122922932Y-73310094D02*
X122970551Y-73357713D01*
X122970551Y-73357713D02*
X123018170Y-73310094D01*
X123018170Y-73310094D02*
X122970551Y-73262475D01*
X122970551Y-73262475D02*
X122970551Y-73357713D01*
X123875312Y-73595808D02*
X123875312Y-74405332D01*
X123875312Y-74405332D02*
X123827693Y-74500570D01*
X123827693Y-74500570D02*
X123780074Y-74548189D01*
X123780074Y-74548189D02*
X123684836Y-74595808D01*
X123684836Y-74595808D02*
X123541979Y-74595808D01*
X123541979Y-74595808D02*
X123446741Y-74548189D01*
X123875312Y-74214856D02*
X123780074Y-74262475D01*
X123780074Y-74262475D02*
X123589598Y-74262475D01*
X123589598Y-74262475D02*
X123494360Y-74214856D01*
X123494360Y-74214856D02*
X123446741Y-74167236D01*
X123446741Y-74167236D02*
X123399122Y-74071998D01*
X123399122Y-74071998D02*
X123399122Y-73786284D01*
X123399122Y-73786284D02*
X123446741Y-73691046D01*
X123446741Y-73691046D02*
X123494360Y-73643427D01*
X123494360Y-73643427D02*
X123589598Y-73595808D01*
X123589598Y-73595808D02*
X123780074Y-73595808D01*
X123780074Y-73595808D02*
X123875312Y-73643427D01*
X124351503Y-73595808D02*
X124351503Y-74262475D01*
X124351503Y-73691046D02*
X124399122Y-73643427D01*
X124399122Y-73643427D02*
X124494360Y-73595808D01*
X124494360Y-73595808D02*
X124637217Y-73595808D01*
X124637217Y-73595808D02*
X124732455Y-73643427D01*
X124732455Y-73643427D02*
X124780074Y-73738665D01*
X124780074Y-73738665D02*
X124780074Y-74262475D01*
X125637217Y-74214856D02*
X125541979Y-74262475D01*
X125541979Y-74262475D02*
X125351503Y-74262475D01*
X125351503Y-74262475D02*
X125256265Y-74214856D01*
X125256265Y-74214856D02*
X125208646Y-74119617D01*
X125208646Y-74119617D02*
X125208646Y-73738665D01*
X125208646Y-73738665D02*
X125256265Y-73643427D01*
X125256265Y-73643427D02*
X125351503Y-73595808D01*
X125351503Y-73595808D02*
X125541979Y-73595808D01*
X125541979Y-73595808D02*
X125637217Y-73643427D01*
X125637217Y-73643427D02*
X125684836Y-73738665D01*
X125684836Y-73738665D02*
X125684836Y-73833903D01*
X125684836Y-73833903D02*
X125208646Y-73929141D01*
X126541979Y-74262475D02*
X126541979Y-73262475D01*
X126541979Y-74214856D02*
X126446741Y-74262475D01*
X126446741Y-74262475D02*
X126256265Y-74262475D01*
X126256265Y-74262475D02*
X126161027Y-74214856D01*
X126161027Y-74214856D02*
X126113408Y-74167236D01*
X126113408Y-74167236D02*
X126065789Y-74071998D01*
X126065789Y-74071998D02*
X126065789Y-73786284D01*
X126065789Y-73786284D02*
X126113408Y-73691046D01*
X126113408Y-73691046D02*
X126161027Y-73643427D01*
X126161027Y-73643427D02*
X126256265Y-73595808D01*
X126256265Y-73595808D02*
X126446741Y-73595808D01*
X126446741Y-73595808D02*
X126541979Y-73643427D01*
X127780075Y-74262475D02*
X127780075Y-73262475D01*
X127780075Y-73643427D02*
X127875313Y-73595808D01*
X127875313Y-73595808D02*
X128065789Y-73595808D01*
X128065789Y-73595808D02*
X128161027Y-73643427D01*
X128161027Y-73643427D02*
X128208646Y-73691046D01*
X128208646Y-73691046D02*
X128256265Y-73786284D01*
X128256265Y-73786284D02*
X128256265Y-74071998D01*
X128256265Y-74071998D02*
X128208646Y-74167236D01*
X128208646Y-74167236D02*
X128161027Y-74214856D01*
X128161027Y-74214856D02*
X128065789Y-74262475D01*
X128065789Y-74262475D02*
X127875313Y-74262475D01*
X127875313Y-74262475D02*
X127780075Y-74214856D01*
X128589599Y-73595808D02*
X128827694Y-74262475D01*
X129065789Y-73595808D02*
X128827694Y-74262475D01*
X128827694Y-74262475D02*
X128732456Y-74500570D01*
X128732456Y-74500570D02*
X128684837Y-74548189D01*
X128684837Y-74548189D02*
X128589599Y-74595808D01*
X120303884Y-75872419D02*
X120303884Y-74872419D01*
X120303884Y-74872419D02*
X120637217Y-75586704D01*
X120637217Y-75586704D02*
X120970550Y-74872419D01*
X120970550Y-74872419D02*
X120970550Y-75872419D01*
X121875312Y-75872419D02*
X121875312Y-75348609D01*
X121875312Y-75348609D02*
X121827693Y-75253371D01*
X121827693Y-75253371D02*
X121732455Y-75205752D01*
X121732455Y-75205752D02*
X121541979Y-75205752D01*
X121541979Y-75205752D02*
X121446741Y-75253371D01*
X121875312Y-75824800D02*
X121780074Y-75872419D01*
X121780074Y-75872419D02*
X121541979Y-75872419D01*
X121541979Y-75872419D02*
X121446741Y-75824800D01*
X121446741Y-75824800D02*
X121399122Y-75729561D01*
X121399122Y-75729561D02*
X121399122Y-75634323D01*
X121399122Y-75634323D02*
X121446741Y-75539085D01*
X121446741Y-75539085D02*
X121541979Y-75491466D01*
X121541979Y-75491466D02*
X121780074Y-75491466D01*
X121780074Y-75491466D02*
X121875312Y-75443847D01*
X122780074Y-75205752D02*
X122780074Y-75872419D01*
X122351503Y-75205752D02*
X122351503Y-75729561D01*
X122351503Y-75729561D02*
X122399122Y-75824800D01*
X122399122Y-75824800D02*
X122494360Y-75872419D01*
X122494360Y-75872419D02*
X122637217Y-75872419D01*
X122637217Y-75872419D02*
X122732455Y-75824800D01*
X122732455Y-75824800D02*
X122780074Y-75777180D01*
X123256265Y-75872419D02*
X123256265Y-75205752D01*
X123256265Y-75396228D02*
X123303884Y-75300990D01*
X123303884Y-75300990D02*
X123351503Y-75253371D01*
X123351503Y-75253371D02*
X123446741Y-75205752D01*
X123446741Y-75205752D02*
X123541979Y-75205752D01*
X123780075Y-75205752D02*
X124018170Y-75872419D01*
X124256265Y-75205752D02*
X124018170Y-75872419D01*
X124018170Y-75872419D02*
X123922932Y-76110514D01*
X123922932Y-76110514D02*
X123875313Y-76158133D01*
X123875313Y-76158133D02*
X123780075Y-76205752D01*
X125065789Y-75824800D02*
X124970551Y-75872419D01*
X124970551Y-75872419D02*
X124780075Y-75872419D01*
X124780075Y-75872419D02*
X124684837Y-75824800D01*
X124684837Y-75824800D02*
X124637218Y-75777180D01*
X124637218Y-75777180D02*
X124589599Y-75681942D01*
X124589599Y-75681942D02*
X124589599Y-75396228D01*
X124589599Y-75396228D02*
X124637218Y-75300990D01*
X124637218Y-75300990D02*
X124684837Y-75253371D01*
X124684837Y-75253371D02*
X124780075Y-75205752D01*
X124780075Y-75205752D02*
X124970551Y-75205752D01*
X124970551Y-75205752D02*
X125065789Y-75253371D01*
X125399123Y-75205752D02*
X125637218Y-75872419D01*
X125875313Y-75205752D02*
X125637218Y-75872419D01*
X125637218Y-75872419D02*
X125541980Y-76110514D01*
X125541980Y-76110514D02*
X125494361Y-76158133D01*
X125494361Y-76158133D02*
X125399123Y-76205752D01*
X127351504Y-75348609D02*
X127018171Y-75348609D01*
X127018171Y-75872419D02*
X127018171Y-74872419D01*
X127018171Y-74872419D02*
X127494361Y-74872419D01*
X127875314Y-75872419D02*
X127875314Y-75205752D01*
X127875314Y-75396228D02*
X127922933Y-75300990D01*
X127922933Y-75300990D02*
X127970552Y-75253371D01*
X127970552Y-75253371D02*
X128065790Y-75205752D01*
X128065790Y-75205752D02*
X128161028Y-75205752D01*
X128399124Y-75205752D02*
X128637219Y-75872419D01*
X128875314Y-75205752D02*
X128637219Y-75872419D01*
X128637219Y-75872419D02*
X128541981Y-76110514D01*
X128541981Y-76110514D02*
X128494362Y-76158133D01*
X128494362Y-76158133D02*
X128399124Y-76205752D01*
X129684838Y-75872419D02*
X129684838Y-74872419D01*
X129684838Y-75824800D02*
X129589600Y-75872419D01*
X129589600Y-75872419D02*
X129399124Y-75872419D01*
X129399124Y-75872419D02*
X129303886Y-75824800D01*
X129303886Y-75824800D02*
X129256267Y-75777180D01*
X129256267Y-75777180D02*
X129208648Y-75681942D01*
X129208648Y-75681942D02*
X129208648Y-75396228D01*
X129208648Y-75396228D02*
X129256267Y-75300990D01*
X129256267Y-75300990D02*
X129303886Y-75253371D01*
X129303886Y-75253371D02*
X129399124Y-75205752D01*
X129399124Y-75205752D02*
X129589600Y-75205752D01*
X129589600Y-75205752D02*
X129684838Y-75253371D01*
X130541981Y-75824800D02*
X130446743Y-75872419D01*
X130446743Y-75872419D02*
X130256267Y-75872419D01*
X130256267Y-75872419D02*
X130161029Y-75824800D01*
X130161029Y-75824800D02*
X130113410Y-75729561D01*
X130113410Y-75729561D02*
X130113410Y-75348609D01*
X130113410Y-75348609D02*
X130161029Y-75253371D01*
X130161029Y-75253371D02*
X130256267Y-75205752D01*
X130256267Y-75205752D02*
X130446743Y-75205752D01*
X130446743Y-75205752D02*
X130541981Y-75253371D01*
X130541981Y-75253371D02*
X130589600Y-75348609D01*
X130589600Y-75348609D02*
X130589600Y-75443847D01*
X130589600Y-75443847D02*
X130113410Y-75539085D01*
X131446743Y-75824800D02*
X131351505Y-75872419D01*
X131351505Y-75872419D02*
X131161029Y-75872419D01*
X131161029Y-75872419D02*
X131065791Y-75824800D01*
X131065791Y-75824800D02*
X131018172Y-75777180D01*
X131018172Y-75777180D02*
X130970553Y-75681942D01*
X130970553Y-75681942D02*
X130970553Y-75396228D01*
X130970553Y-75396228D02*
X131018172Y-75300990D01*
X131018172Y-75300990D02*
X131065791Y-75253371D01*
X131065791Y-75253371D02*
X131161029Y-75205752D01*
X131161029Y-75205752D02*
X131351505Y-75205752D01*
X131351505Y-75205752D02*
X131446743Y-75253371D01*
X131875315Y-75872419D02*
X131875315Y-74872419D01*
X131970553Y-75491466D02*
X132256267Y-75872419D01*
X132256267Y-75205752D02*
X131875315Y-75586704D01*
X132684839Y-75872419D02*
X132684839Y-75205752D01*
X132684839Y-74872419D02*
X132637220Y-74920038D01*
X132637220Y-74920038D02*
X132684839Y-74967657D01*
X132684839Y-74967657D02*
X132732458Y-74920038D01*
X132732458Y-74920038D02*
X132684839Y-74872419D01*
X132684839Y-74872419D02*
X132684839Y-74967657D01*
D11*
X157166666Y-74454819D02*
X157166666Y-75169104D01*
X157166666Y-75169104D02*
X157119047Y-75311961D01*
X157119047Y-75311961D02*
X157023809Y-75407200D01*
X157023809Y-75407200D02*
X156880952Y-75454819D01*
X156880952Y-75454819D02*
X156785714Y-75454819D01*
X157595238Y-74550057D02*
X157642857Y-74502438D01*
X157642857Y-74502438D02*
X157738095Y-74454819D01*
X157738095Y-74454819D02*
X157976190Y-74454819D01*
X157976190Y-74454819D02*
X158071428Y-74502438D01*
X158071428Y-74502438D02*
X158119047Y-74550057D01*
X158119047Y-74550057D02*
X158166666Y-74645295D01*
X158166666Y-74645295D02*
X158166666Y-74740533D01*
X158166666Y-74740533D02*
X158119047Y-74883390D01*
X158119047Y-74883390D02*
X157547619Y-75454819D01*
X157547619Y-75454819D02*
X158166666Y-75454819D01*
X142166666Y-74454819D02*
X142166666Y-75169104D01*
X142166666Y-75169104D02*
X142119047Y-75311961D01*
X142119047Y-75311961D02*
X142023809Y-75407200D01*
X142023809Y-75407200D02*
X141880952Y-75454819D01*
X141880952Y-75454819D02*
X141785714Y-75454819D01*
X142547619Y-74454819D02*
X143166666Y-74454819D01*
X143166666Y-74454819D02*
X142833333Y-74835771D01*
X142833333Y-74835771D02*
X142976190Y-74835771D01*
X142976190Y-74835771D02*
X143071428Y-74883390D01*
X143071428Y-74883390D02*
X143119047Y-74931009D01*
X143119047Y-74931009D02*
X143166666Y-75026247D01*
X143166666Y-75026247D02*
X143166666Y-75264342D01*
X143166666Y-75264342D02*
X143119047Y-75359580D01*
X143119047Y-75359580D02*
X143071428Y-75407200D01*
X143071428Y-75407200D02*
X142976190Y-75454819D01*
X142976190Y-75454819D02*
X142690476Y-75454819D01*
X142690476Y-75454819D02*
X142595238Y-75407200D01*
X142595238Y-75407200D02*
X142547619Y-75359580D01*
X164438095Y-103804819D02*
X164438095Y-102804819D01*
X164438095Y-103281009D02*
X165009523Y-103281009D01*
X165009523Y-103804819D02*
X165009523Y-102804819D01*
X166009523Y-103804819D02*
X165438095Y-103804819D01*
X165723809Y-103804819D02*
X165723809Y-102804819D01*
X165723809Y-102804819D02*
X165628571Y-102947676D01*
X165628571Y-102947676D02*
X165533333Y-103042914D01*
X165533333Y-103042914D02*
X165438095Y-103090533D01*
D10*
X151333333Y-116202580D02*
X151666666Y-116678771D01*
X151904761Y-116202580D02*
X151904761Y-117202580D01*
X151904761Y-117202580D02*
X151523809Y-117202580D01*
X151523809Y-117202580D02*
X151428571Y-117154961D01*
X151428571Y-117154961D02*
X151380952Y-117107342D01*
X151380952Y-117107342D02*
X151333333Y-117012104D01*
X151333333Y-117012104D02*
X151333333Y-116869247D01*
X151333333Y-116869247D02*
X151380952Y-116774009D01*
X151380952Y-116774009D02*
X151428571Y-116726390D01*
X151428571Y-116726390D02*
X151523809Y-116678771D01*
X151523809Y-116678771D02*
X151904761Y-116678771D01*
X150904761Y-116726390D02*
X150571428Y-116726390D01*
X150428571Y-116202580D02*
X150904761Y-116202580D01*
X150904761Y-116202580D02*
X150904761Y-117202580D01*
X150904761Y-117202580D02*
X150428571Y-117202580D01*
X149666666Y-116726390D02*
X149999999Y-116726390D01*
X149999999Y-116202580D02*
X149999999Y-117202580D01*
X149999999Y-117202580D02*
X149523809Y-117202580D01*
X148999999Y-117202580D02*
X148999999Y-116964485D01*
X149238094Y-117059723D02*
X148999999Y-116964485D01*
X148999999Y-116964485D02*
X148761904Y-117059723D01*
X149142856Y-116774009D02*
X148999999Y-116964485D01*
X148999999Y-116964485D02*
X148857142Y-116774009D01*
X148238094Y-117202580D02*
X148238094Y-116964485D01*
X148476189Y-117059723D02*
X148238094Y-116964485D01*
X148238094Y-116964485D02*
X147999999Y-117059723D01*
X148380951Y-116774009D02*
X148238094Y-116964485D01*
X148238094Y-116964485D02*
X148095237Y-116774009D01*
X120666666Y-80707419D02*
X120666666Y-81421704D01*
X120666666Y-81421704D02*
X120619047Y-81564561D01*
X120619047Y-81564561D02*
X120523809Y-81659800D01*
X120523809Y-81659800D02*
X120380952Y-81707419D01*
X120380952Y-81707419D02*
X120285714Y-81707419D01*
X121047619Y-80707419D02*
X121714285Y-80707419D01*
X121714285Y-80707419D02*
X121285714Y-81707419D01*
D12*
%TO.C,svg2mod*%
G36*
X176918440Y-82151530D02*
G01*
X174455780Y-84614190D01*
X174372540Y-84705735D01*
X174299705Y-84802979D01*
X174237276Y-84905162D01*
X174185251Y-85011524D01*
X174143631Y-85121305D01*
X174112416Y-85233745D01*
X174091606Y-85348086D01*
X174081201Y-85463565D01*
X174081201Y-85579425D01*
X174091606Y-85694905D01*
X174112416Y-85809245D01*
X174143631Y-85921686D01*
X174185251Y-86031467D01*
X174237276Y-86137829D01*
X174299705Y-86240012D01*
X174372540Y-86337255D01*
X174455780Y-86428801D01*
X174543476Y-86508846D01*
X174636451Y-86579318D01*
X174734033Y-86640215D01*
X174835551Y-86691538D01*
X174940333Y-86733285D01*
X175047708Y-86765457D01*
X175157005Y-86788053D01*
X175267550Y-86801073D01*
X175378674Y-86804516D01*
X175489704Y-86798383D01*
X175599969Y-86782672D01*
X175708797Y-86757384D01*
X175815516Y-86722519D01*
X175919455Y-86678075D01*
X176019943Y-86624052D01*
X176116308Y-86560451D01*
X176207878Y-86487271D01*
X176270364Y-86428777D01*
X176328861Y-86366287D01*
X177560153Y-85134996D01*
X178333802Y-85908643D01*
X177042019Y-87200429D01*
X176946272Y-87291093D01*
X176846855Y-87375438D01*
X176744034Y-87453462D01*
X176638076Y-87525168D01*
X176529244Y-87590554D01*
X176417806Y-87649620D01*
X176304026Y-87702367D01*
X176188171Y-87748795D01*
X176070505Y-87788903D01*
X175951294Y-87822692D01*
X175830804Y-87850162D01*
X175709301Y-87871313D01*
X175587049Y-87886145D01*
X175464315Y-87894659D01*
X175341365Y-87896853D01*
X175218463Y-87892728D01*
X175095875Y-87882285D01*
X174973868Y-87865523D01*
X174852706Y-87842443D01*
X174735831Y-87813925D01*
X174620255Y-87779437D01*
X174506219Y-87738976D01*
X174393960Y-87692542D01*
X174283721Y-87640133D01*
X174175740Y-87581748D01*
X174070258Y-87517385D01*
X173967514Y-87447043D01*
X173867749Y-87370721D01*
X173771203Y-87288417D01*
X173678114Y-87200130D01*
X173590262Y-87107532D01*
X173508326Y-87011515D01*
X173432309Y-86912316D01*
X173362212Y-86810169D01*
X173298039Y-86705310D01*
X173239792Y-86597977D01*
X173187472Y-86488405D01*
X173141083Y-86376830D01*
X173100626Y-86263488D01*
X173066105Y-86148615D01*
X173037521Y-86032447D01*
X173014009Y-85910917D01*
X172996859Y-85788538D01*
X172986069Y-85665577D01*
X172981639Y-85542300D01*
X172983569Y-85418975D01*
X172991859Y-85295866D01*
X173006507Y-85173242D01*
X173027514Y-85051368D01*
X173054879Y-84930512D01*
X173088601Y-84810938D01*
X173128681Y-84692916D01*
X173175117Y-84576709D01*
X173227909Y-84462586D01*
X173287057Y-84350813D01*
X173352560Y-84241657D01*
X173424417Y-84135383D01*
X173502629Y-84032258D01*
X173587195Y-83932550D01*
X173678114Y-83836524D01*
X176140774Y-81373865D01*
X176918440Y-82151530D01*
G37*
G36*
X169699860Y-74927313D02*
G01*
X169796093Y-75027259D01*
X169885061Y-75127370D01*
X169966764Y-75227642D01*
X170041199Y-75328076D01*
X170108363Y-75428667D01*
X170168256Y-75529414D01*
X170220875Y-75630315D01*
X170266218Y-75731368D01*
X170304283Y-75832571D01*
X170343427Y-75961546D01*
X170372557Y-76088247D01*
X170391676Y-76212662D01*
X170400791Y-76334777D01*
X170399903Y-76454579D01*
X170389019Y-76572056D01*
X170368142Y-76687194D01*
X170338210Y-76798926D01*
X170300160Y-76906190D01*
X170254004Y-77008978D01*
X170199748Y-77107279D01*
X170137402Y-77201086D01*
X170066975Y-77290390D01*
X169988476Y-77375182D01*
X169897750Y-77458566D01*
X169802748Y-77531552D01*
X169703471Y-77594148D01*
X169599924Y-77646363D01*
X169492109Y-77688207D01*
X169380029Y-77719689D01*
X169263686Y-77740818D01*
X169143084Y-77751602D01*
X169036732Y-77752251D01*
X168928428Y-77744698D01*
X168818197Y-77729062D01*
X168706062Y-77705464D01*
X168592047Y-77674024D01*
X168636340Y-77803179D01*
X168671665Y-77930977D01*
X168697997Y-78057431D01*
X168715308Y-78182554D01*
X168723571Y-78306361D01*
X168722759Y-78428864D01*
X168712328Y-78553802D01*
X168692175Y-78675005D01*
X168662299Y-78792472D01*
X168622697Y-78906200D01*
X168573368Y-79016187D01*
X168514309Y-79122432D01*
X168445519Y-79224932D01*
X168366995Y-79323685D01*
X168278736Y-79418689D01*
X168181999Y-79508216D01*
X168080590Y-79588000D01*
X167974507Y-79658040D01*
X167863750Y-79718336D01*
X167748320Y-79768888D01*
X167628217Y-79809696D01*
X167503440Y-79840760D01*
X167391269Y-79859598D01*
X167277397Y-79870086D01*
X167161830Y-79872226D01*
X167044573Y-79866017D01*
X166925633Y-79851459D01*
X166868581Y-79840624D01*
X166805014Y-79828552D01*
X166682724Y-79797296D01*
X166558767Y-79757692D01*
X166459041Y-79719675D01*
X166359672Y-79675521D01*
X166260660Y-79625227D01*
X166162003Y-79568792D01*
X166063699Y-79506214D01*
X165965747Y-79437493D01*
X165868145Y-79362625D01*
X165770891Y-79281611D01*
X165673985Y-79194449D01*
X165577424Y-79101136D01*
X163847856Y-77371568D01*
X165162208Y-77371568D01*
X165251762Y-77461122D01*
X165249645Y-77463238D01*
X166200304Y-78413897D01*
X166306298Y-78510038D01*
X166414481Y-78588676D01*
X166524841Y-78649811D01*
X166637362Y-78693444D01*
X166752031Y-78719575D01*
X166868835Y-78728206D01*
X166868581Y-78728462D01*
X166983330Y-78721642D01*
X167091858Y-78701420D01*
X167194177Y-78667784D01*
X167290302Y-78620719D01*
X167380246Y-78560211D01*
X167464023Y-78486247D01*
X167539890Y-78400743D01*
X167602498Y-78309229D01*
X167651870Y-78211682D01*
X167688030Y-78108078D01*
X167709122Y-78000650D01*
X167714032Y-77890930D01*
X167702759Y-77778966D01*
X167675303Y-77664803D01*
X167641211Y-77573351D01*
X167595815Y-77483384D01*
X167539128Y-77394890D01*
X167471161Y-77307858D01*
X167391926Y-77222274D01*
X166441268Y-76271616D01*
X166439151Y-76273732D01*
X166349598Y-76184179D01*
X165162208Y-77371568D01*
X163847856Y-77371568D01*
X163727492Y-77251204D01*
X166223502Y-74755191D01*
X167944969Y-76476657D01*
X168053600Y-76575354D01*
X168163668Y-76655635D01*
X168275173Y-76717524D01*
X168388115Y-76761046D01*
X168502494Y-76786225D01*
X168616002Y-76790717D01*
X168726326Y-76772172D01*
X168833452Y-76730601D01*
X168937369Y-76666017D01*
X169038066Y-76578432D01*
X169127806Y-76475581D01*
X169194067Y-76369987D01*
X169236834Y-76261664D01*
X169256098Y-76150622D01*
X169251844Y-76036875D01*
X169226666Y-75922496D01*
X169183143Y-75809554D01*
X169121254Y-75698049D01*
X169040973Y-75587981D01*
X168942276Y-75479350D01*
X167220810Y-73757883D01*
X167875622Y-73103074D01*
X169699860Y-74927313D01*
G37*
G36*
X171726255Y-78002972D02*
G01*
X171841433Y-78012008D01*
X171956252Y-78025562D01*
X172070568Y-78043634D01*
X172184235Y-78066224D01*
X172297111Y-78093333D01*
X172409051Y-78124959D01*
X172519911Y-78161104D01*
X172629548Y-78201767D01*
X172737817Y-78246948D01*
X172844575Y-78296648D01*
X172949678Y-78350865D01*
X173052981Y-78409601D01*
X173154341Y-78472855D01*
X173253613Y-78540628D01*
X173350655Y-78612918D01*
X173445321Y-78689727D01*
X173537468Y-78771054D01*
X173626952Y-78856899D01*
X173715147Y-78948940D01*
X173798566Y-79043792D01*
X173877209Y-79141299D01*
X173951076Y-79241304D01*
X174020166Y-79343650D01*
X174084480Y-79448181D01*
X174144018Y-79554741D01*
X174198779Y-79663174D01*
X174248765Y-79773322D01*
X174293974Y-79885029D01*
X174334407Y-79998139D01*
X174370064Y-80112496D01*
X174400945Y-80227943D01*
X174427050Y-80344323D01*
X174448378Y-80461480D01*
X174464931Y-80579258D01*
X174476707Y-80697500D01*
X174483707Y-80816050D01*
X174485932Y-80934751D01*
X174483380Y-81053447D01*
X174476052Y-81171981D01*
X174463948Y-81290197D01*
X174447068Y-81407938D01*
X174425412Y-81525048D01*
X174398980Y-81641371D01*
X174367772Y-81756750D01*
X174331789Y-81871029D01*
X174291029Y-81984051D01*
X174245493Y-82095659D01*
X174195182Y-82205698D01*
X174140094Y-82314010D01*
X174080231Y-82420440D01*
X173259684Y-81599893D01*
X173301031Y-81482678D01*
X173334197Y-81363445D01*
X173359180Y-81242635D01*
X173375979Y-81120695D01*
X173384594Y-80998067D01*
X173385023Y-80875196D01*
X173377266Y-80752526D01*
X173361321Y-80630501D01*
X173337189Y-80509566D01*
X173304868Y-80390164D01*
X173264357Y-80272739D01*
X173215656Y-80157736D01*
X173158763Y-80045599D01*
X173093678Y-79936771D01*
X173020401Y-79831698D01*
X172938929Y-79730822D01*
X172849262Y-79634589D01*
X172761282Y-79552123D01*
X172669374Y-79476529D01*
X172573880Y-79407807D01*
X172475140Y-79345958D01*
X172373498Y-79290980D01*
X172269293Y-79242875D01*
X172162869Y-79201641D01*
X172054566Y-79167280D01*
X171944726Y-79139791D01*
X171833691Y-79119174D01*
X171721801Y-79105429D01*
X171609400Y-79098556D01*
X171496828Y-79098556D01*
X171384427Y-79105427D01*
X171272538Y-79119170D01*
X171161504Y-79139786D01*
X171051665Y-79167273D01*
X170943363Y-79201632D01*
X170836940Y-79242863D01*
X170732737Y-79290967D01*
X170631097Y-79345942D01*
X170532360Y-79407789D01*
X170436868Y-79476508D01*
X170344963Y-79552099D01*
X170256986Y-79634562D01*
X170174522Y-79722540D01*
X170098931Y-79814445D01*
X170030211Y-79909937D01*
X169968364Y-80008675D01*
X169913389Y-80110315D01*
X169865285Y-80214518D01*
X169824054Y-80320941D01*
X169789694Y-80429243D01*
X169762207Y-80539082D01*
X169741591Y-80650116D01*
X169727848Y-80762005D01*
X169720977Y-80874406D01*
X169720977Y-80986978D01*
X169727850Y-81099379D01*
X169741595Y-81211268D01*
X169762212Y-81322303D01*
X169789701Y-81432143D01*
X169824062Y-81540446D01*
X169865295Y-81646870D01*
X169913401Y-81751075D01*
X169968378Y-81852717D01*
X170030228Y-81951456D01*
X170098949Y-82046951D01*
X170174543Y-82138859D01*
X170257009Y-82226839D01*
X170353742Y-82316940D01*
X170455163Y-82398767D01*
X170560821Y-82472322D01*
X170670265Y-82537603D01*
X170783044Y-82594613D01*
X170898707Y-82643350D01*
X171016802Y-82683815D01*
X171136879Y-82716010D01*
X171258487Y-82739933D01*
X171381174Y-82755586D01*
X171504490Y-82762968D01*
X171627983Y-82762080D01*
X171751202Y-82752923D01*
X171873697Y-82735497D01*
X171995015Y-82709801D01*
X172847540Y-83562329D01*
X172737137Y-83613803D01*
X172625121Y-83660449D01*
X172511648Y-83702265D01*
X172396879Y-83739252D01*
X172280973Y-83771409D01*
X172164089Y-83798736D01*
X172046386Y-83821231D01*
X171928023Y-83838896D01*
X171809160Y-83851729D01*
X171689956Y-83859731D01*
X171570569Y-83862900D01*
X171451159Y-83861237D01*
X171331886Y-83854741D01*
X171212908Y-83843411D01*
X171094384Y-83827249D01*
X170976475Y-83806252D01*
X170859338Y-83780420D01*
X170743133Y-83749755D01*
X170628019Y-83714254D01*
X170514156Y-83673917D01*
X170401703Y-83628745D01*
X170290818Y-83578737D01*
X170181662Y-83523893D01*
X170074392Y-83464211D01*
X169969169Y-83399692D01*
X169866151Y-83330336D01*
X169765499Y-83256142D01*
X169667369Y-83177110D01*
X169571923Y-83093239D01*
X169479320Y-83004529D01*
X169393474Y-82915045D01*
X169312147Y-82822898D01*
X169235339Y-82728232D01*
X169163048Y-82631190D01*
X169095276Y-82531918D01*
X169032022Y-82430558D01*
X168973286Y-82327255D01*
X168919069Y-82222152D01*
X168869369Y-82115394D01*
X168824188Y-82007125D01*
X168783525Y-81897488D01*
X168747380Y-81786628D01*
X168715754Y-81674688D01*
X168688645Y-81561812D01*
X168666055Y-81448145D01*
X168647983Y-81333829D01*
X168634429Y-81219011D01*
X168625394Y-81103832D01*
X168620876Y-80988437D01*
X168620876Y-80872971D01*
X168625395Y-80757576D01*
X168634432Y-80642398D01*
X168647987Y-80527579D01*
X168666060Y-80413264D01*
X168688651Y-80299598D01*
X168715760Y-80186723D01*
X168747387Y-80074783D01*
X168783532Y-79963924D01*
X168824195Y-79854288D01*
X168869377Y-79746019D01*
X168919076Y-79639263D01*
X168973294Y-79534161D01*
X169032029Y-79430860D01*
X169095282Y-79329501D01*
X169163054Y-79230230D01*
X169235343Y-79133191D01*
X169312151Y-79038526D01*
X169393476Y-78946381D01*
X169479320Y-78856899D01*
X169568802Y-78771056D01*
X169660947Y-78689730D01*
X169755612Y-78612922D01*
X169852652Y-78540633D01*
X169951923Y-78472861D01*
X170053281Y-78409608D01*
X170156583Y-78350872D01*
X170261684Y-78296655D01*
X170368441Y-78246955D01*
X170476710Y-78201774D01*
X170586346Y-78161111D01*
X170697206Y-78124965D01*
X170809145Y-78093338D01*
X170922020Y-78066229D01*
X171035687Y-78043638D01*
X171150002Y-78025565D01*
X171264820Y-78012010D01*
X171379999Y-78002974D01*
X171495394Y-77998455D01*
X171610860Y-77998455D01*
X171726255Y-78002972D01*
G37*
G36*
X128560924Y-85638872D02*
G01*
X127293750Y-86370498D01*
X127270488Y-84917459D01*
X128537662Y-84185833D01*
X128560924Y-85638872D01*
G37*
G36*
X132691250Y-86125282D02*
G01*
X131421250Y-86831667D01*
X131421250Y-85368468D01*
X132691250Y-84662083D01*
X132691250Y-86125282D01*
G37*
G36*
X133988079Y-82375268D02*
G01*
X132720883Y-83106873D01*
X131474167Y-82360208D01*
X132741362Y-81628604D01*
X133988079Y-82375268D01*
G37*
G36*
X131395162Y-82360208D02*
G01*
X130148424Y-83106873D01*
X128881250Y-82375268D01*
X130127988Y-81628604D01*
X131395162Y-82360208D01*
G37*
G36*
X132691250Y-79759291D02*
G01*
X132691250Y-81222500D01*
X131421250Y-80516126D01*
X131421250Y-79052917D01*
X132691250Y-79759291D01*
G37*
G36*
X129807662Y-81460625D02*
G01*
X128560924Y-82207290D01*
X127293750Y-81475685D01*
X128540488Y-80729020D01*
X129807662Y-81460625D01*
G37*
G36*
X135598862Y-84917459D02*
G01*
X135575579Y-86370498D01*
X134308383Y-85638872D01*
X134331667Y-84185833D01*
X135598862Y-84917459D01*
G37*
G36*
X135575579Y-81475685D02*
G01*
X134308383Y-82207290D01*
X133061667Y-81460625D01*
X134328862Y-80729020D01*
X135575579Y-81475685D01*
G37*
G36*
X132691250Y-87924449D02*
G01*
X131421250Y-88630833D01*
X131421250Y-87167635D01*
X132691250Y-86461250D01*
X132691250Y-87924449D01*
G37*
D13*
%TO.C,J2*%
X143650000Y-78830000D02*
X158950000Y-78830000D01*
X143650000Y-78830000D02*
X143650000Y-76170000D01*
X158950000Y-78830000D02*
X158950000Y-76170000D01*
X141050000Y-77500000D02*
X141050000Y-76170000D01*
X141050000Y-76170000D02*
X142380000Y-76170000D01*
X143650000Y-76170000D02*
X158950000Y-76170000D01*
%TO.C,J3*%
X155840000Y-76170000D02*
X159050000Y-76170000D01*
X150760000Y-76170000D02*
X154320000Y-76170000D01*
X145680000Y-76170000D02*
X149240000Y-76170000D01*
X140950000Y-76170000D02*
X144160000Y-76170000D01*
X159050000Y-78830000D02*
X159050000Y-76170000D01*
X158380000Y-78830000D02*
X159050000Y-78830000D01*
X153300000Y-78830000D02*
X156860000Y-78830000D01*
X148220000Y-78830000D02*
X151780000Y-78830000D01*
X143140000Y-78830000D02*
X146700000Y-78830000D01*
X140950000Y-78830000D02*
X140950000Y-76170000D01*
X140950000Y-78830000D02*
X141620000Y-78830000D01*
X141620000Y-80040000D02*
X141620000Y-78830000D01*
D10*
%TO.C,A1*%
X139000000Y-103460000D02*
X139000000Y-103760000D01*
X139000000Y-105660000D02*
X139000000Y-106260000D01*
X139000000Y-108160000D02*
X139000000Y-108860000D01*
X139000000Y-110760000D02*
X139000000Y-111360000D01*
X139000000Y-113260000D02*
X139000000Y-113960000D01*
X139000000Y-115860000D02*
X139000000Y-116460000D01*
X139000000Y-118360000D02*
X139000000Y-118960000D01*
X139000000Y-120860000D02*
X139000000Y-121560000D01*
X139000000Y-123460000D02*
X139000000Y-124060000D01*
X139000000Y-125960000D02*
X139000000Y-129860000D01*
X139000000Y-129860000D02*
X145300000Y-129860000D01*
X142700000Y-103460000D02*
X139000000Y-103460000D01*
X145300000Y-103460000D02*
X144600000Y-103460000D01*
X147800000Y-103460000D02*
X147100000Y-103460000D01*
X150300000Y-103460000D02*
X149700000Y-103460000D01*
X152900000Y-103460000D02*
X152200000Y-103460000D01*
X154700000Y-129860000D02*
X145300000Y-129860000D01*
X154700000Y-129860000D02*
X161000000Y-129860000D01*
X155400000Y-103460000D02*
X154800000Y-103460000D01*
X161000000Y-103460000D02*
X157300000Y-103460000D01*
X161000000Y-103760000D02*
X161000000Y-103460000D01*
X161000000Y-106260000D02*
X161000000Y-105660000D01*
X161000000Y-108860000D02*
X161000000Y-108260000D01*
X161000000Y-111360000D02*
X161000000Y-110760000D01*
X161000000Y-113960000D02*
X161000000Y-113260000D01*
X161000000Y-116460000D02*
X161000000Y-115860000D01*
X161000000Y-118960000D02*
X161000000Y-118360000D01*
X161000000Y-121560000D02*
X161000000Y-120860000D01*
X161000000Y-124060000D02*
X161000000Y-123460000D01*
X161000000Y-129860000D02*
X161000000Y-125960000D01*
%TO.C,J7*%
X119500000Y-86500000D02*
X119500000Y-117500000D01*
X119500000Y-117500000D02*
X122500000Y-117500000D01*
X121000000Y-82500000D02*
X122500000Y-82500000D01*
X122500000Y-82500000D02*
X122500000Y-84000000D01*
X122500000Y-86500000D02*
X119500000Y-86500000D01*
X122500000Y-117500000D02*
X122500000Y-86500000D01*
%TD*%
M02*
