%TF.GenerationSoftware,KiCad,Pcbnew,9.0.3*%
%TF.CreationDate,2025-07-27T20:55:45+02:00*%
%TF.ProjectId,Pololu Zumo 32U4 controller shield,506f6c6f-6c75-4205-9a75-6d6f20333255,rev?*%
%TF.SameCoordinates,Original*%
%TF.FileFunction,Profile,NP*%
%FSLAX46Y46*%
G04 Gerber Fmt 4.6, Leading zero omitted, Abs format (unit mm)*
G04 Created by KiCad (PCBNEW 9.0.3) date 2025-07-27 20:55:45*
%MOMM*%
%LPD*%
G01*
G04 APERTURE LIST*
%TA.AperFunction,Profile*%
%ADD10C,0.050000*%
%TD*%
%TA.AperFunction,Profile*%
%ADD11C,0.000010*%
%TD*%
G04 APERTURE END LIST*
D10*
X177500000Y-70000000D02*
G75*
G02*
X182500000Y-75000000I0J-5000000D01*
G01*
X182500000Y-125000000D02*
G75*
G02*
X177500000Y-130000000I-5000000J0D01*
G01*
X117500000Y-75000000D02*
G75*
G02*
X122500000Y-70000000I5000000J0D01*
G01*
X122500000Y-130000000D02*
G75*
G02*
X117500000Y-125000000I0J5000000D01*
G01*
X182500000Y-75000000D02*
X182500000Y-125000000D01*
X122500000Y-70000000D02*
X177500000Y-70000000D01*
X177500000Y-130000000D02*
X122500000Y-130000000D01*
X117500000Y-125000000D02*
X117500000Y-75000000D01*
D11*
%TO.C,svg2mod*%
X178827628Y-84193535D02*
X178929530Y-84223734D01*
X179025178Y-84274067D01*
X179111444Y-84344532D01*
X179181910Y-84430798D01*
X179232242Y-84526446D01*
X179262442Y-84628349D01*
X179272508Y-84733378D01*
X179262442Y-84838408D01*
X179232242Y-84940310D01*
X179181910Y-85035958D01*
X179111444Y-85122225D01*
X179025178Y-85192690D01*
X178929530Y-85243022D01*
X178827628Y-85273222D01*
X178722598Y-85283288D01*
X178617568Y-85273222D01*
X178515666Y-85243022D01*
X178420018Y-85192690D01*
X178333752Y-85122225D01*
X178263287Y-85035958D01*
X178212954Y-84940310D01*
X178182755Y-84838408D01*
X178172688Y-84733378D01*
X178182755Y-84628349D01*
X178212954Y-84526446D01*
X178263287Y-84430798D01*
X178333752Y-84344532D01*
X178420018Y-84274067D01*
X178515666Y-84223734D01*
X178617568Y-84193535D01*
X178722598Y-84183468D01*
X178827628Y-84193535D01*
X171658165Y-80390870D02*
X171760068Y-80421070D01*
X171855716Y-80471403D01*
X171941982Y-80541869D01*
X172012446Y-80628133D01*
X172062776Y-80723778D01*
X172092972Y-80825676D01*
X172103034Y-80930701D01*
X172092962Y-81035726D01*
X172062759Y-81137625D01*
X172012423Y-81233270D01*
X171941956Y-81319535D01*
X171855691Y-81390001D01*
X171760047Y-81440337D01*
X171658149Y-81470540D01*
X171553124Y-81480611D01*
X171448098Y-81470549D01*
X171346200Y-81440353D01*
X171250555Y-81390023D01*
X171164290Y-81319559D01*
X171093824Y-81233293D01*
X171043492Y-81137646D01*
X171013292Y-81035744D01*
X171003226Y-80930714D01*
X171013292Y-80825684D01*
X171043492Y-80723782D01*
X171093824Y-80628134D01*
X171164290Y-80541869D01*
X171250556Y-80471403D01*
X171346204Y-80421070D01*
X171448106Y-80390870D01*
X171553136Y-80380803D01*
X171658165Y-80390870D01*
X167179165Y-74117925D02*
X167281945Y-74141773D01*
X167378325Y-74184709D01*
X167465338Y-74245739D01*
X167540020Y-74323870D01*
X167599405Y-74418106D01*
X167638785Y-74522297D01*
X167656092Y-74628982D01*
X167652323Y-74735198D01*
X167628472Y-74837978D01*
X167585534Y-74934357D01*
X167524504Y-75021371D01*
X167446376Y-75096052D01*
X167352146Y-75155436D01*
X167247957Y-75194817D01*
X167141272Y-75212128D01*
X167035057Y-75208362D01*
X166932277Y-75184514D01*
X166835897Y-75141578D01*
X166748884Y-75080548D01*
X166674203Y-75002417D01*
X166614819Y-74908181D01*
X166575437Y-74803990D01*
X166558126Y-74697305D01*
X166561892Y-74591090D01*
X166585740Y-74488310D01*
X166628676Y-74391931D01*
X166689707Y-74304917D01*
X166767838Y-74230236D01*
X166862074Y-74170850D01*
X166966265Y-74131470D01*
X167072950Y-74114159D01*
X167179165Y-74117925D01*
%TD*%
M02*
