M48
; DRILL file {KiCad 9.0.3} date 2025-07-27T20:55:47+0200
; FORMAT={-:-/ absolute / metric / decimal}
; #@! TF.CreationDate,2025-07-27T20:55:47+02:00
; #@! TF.GenerationSoftware,Kicad,Pcbnew,9.0.3
; #@! TF.FileFunction,Plated,1,2,PTH
FMAT,2
METRIC
; #@! TA.AperFunction,Plated,PTH,ComponentDrill
T1C1.000
%
G90
G05
T1
X121.0Y-84.0
X121.0Y-88.0
X121.0Y-92.0
X121.0Y-96.0
X121.0Y-100.0
X121.0Y-104.0
X121.0Y-108.0
X121.0Y-112.0
X121.0Y-116.0
X125.91Y-94.52
X125.91Y-97.06
X125.91Y-99.6
X125.91Y-102.14
X125.91Y-104.68
X125.91Y-107.22
X125.91Y-109.76
X125.91Y-112.3
X125.91Y-114.84
X125.91Y-117.38
X125.91Y-119.92
X125.91Y-122.46
X125.91Y-125.0
X128.45Y-94.52
X128.45Y-97.06
X128.45Y-99.6
X128.45Y-102.14
X128.45Y-104.68
X128.45Y-107.22
X128.45Y-109.76
X128.45Y-112.3
X128.45Y-114.84
X128.45Y-117.38
X128.45Y-119.92
X128.45Y-122.46
X128.45Y-125.0
X140.595Y-104.72
X140.595Y-107.26
X140.595Y-109.8
X140.595Y-112.34
X140.595Y-114.88
X140.595Y-117.42
X140.595Y-119.96
X140.595Y-122.5
X140.595Y-125.04
X142.38Y-77.5
X142.38Y-89.17
X143.65Y-104.96
X144.92Y-77.5
X144.92Y-89.17
X146.19Y-104.96
X147.46Y-77.5
X147.46Y-89.17
X148.73Y-104.96
X150.0Y-77.5
X150.0Y-89.17
X151.27Y-104.96
X152.54Y-77.5
X152.54Y-89.17
X153.81Y-104.96
X155.08Y-77.5
X155.08Y-89.17
X156.35Y-104.96
X157.62Y-77.5
X157.62Y-89.17
X159.405Y-104.72
X159.405Y-107.26
X159.405Y-109.8
X159.405Y-112.34
X159.405Y-114.88
X159.405Y-117.42
X159.405Y-119.96
X159.405Y-122.5
X159.405Y-125.04
X171.59Y-94.52
X171.59Y-97.06
X171.59Y-99.6
X171.59Y-102.14
X171.59Y-104.68
X171.59Y-107.22
X171.59Y-109.76
X171.59Y-112.3
X171.59Y-114.84
X171.59Y-117.38
X171.59Y-119.92
X171.59Y-122.46
X171.59Y-125.0
X174.13Y-94.52
X174.13Y-97.06
X174.13Y-99.6
X174.13Y-102.14
X174.13Y-104.68
X174.13Y-107.22
X174.13Y-109.76
X174.13Y-112.3
X174.13Y-114.84
X174.13Y-117.38
X174.13Y-119.92
X174.13Y-122.46
X174.13Y-125.0
M30
