%TF.GenerationSoftware,KiCad,Pcbnew,9.0.3*%
%TF.CreationDate,2025-07-27T20:55:45+02:00*%
%TF.ProjectId,Pololu Zumo 32U4 controller shield,506f6c6f-6c75-4205-9a75-6d6f20333255,rev?*%
%TF.SameCoordinates,Original*%
%TF.FileFunction,Copper,L1,Top*%
%TF.FilePolarity,Positive*%
%FSLAX46Y46*%
G04 Gerber Fmt 4.6, Leading zero omitted, Abs format (unit mm)*
G04 Created by KiCad (PCBNEW 9.0.3) date 2025-07-27 20:55:45*
%MOMM*%
%LPD*%
G01*
G04 APERTURE LIST*
G04 Aperture macros list*
%AMRoundRect*
0 Rectangle with rounded corners*
0 $1 Rounding radius*
0 $2 $3 $4 $5 $6 $7 $8 $9 X,Y pos of 4 corners*
0 Add a 4 corners polygon primitive as box body*
4,1,4,$2,$3,$4,$5,$6,$7,$8,$9,$2,$3,0*
0 Add four circle primitives for the rounded corners*
1,1,$1+$1,$2,$3*
1,1,$1+$1,$4,$5*
1,1,$1+$1,$6,$7*
1,1,$1+$1,$8,$9*
0 Add four rect primitives between the rounded corners*
20,1,$1+$1,$2,$3,$4,$5,0*
20,1,$1+$1,$4,$5,$6,$7,0*
20,1,$1+$1,$6,$7,$8,$9,0*
20,1,$1+$1,$8,$9,$2,$3,0*%
G04 Aperture macros list end*
%TA.AperFunction,EtchedComponent*%
%ADD10C,0.000000*%
%TD*%
%TA.AperFunction,ComponentPad*%
%ADD11R,1.700000X1.700000*%
%TD*%
%TA.AperFunction,ComponentPad*%
%ADD12C,1.700000*%
%TD*%
%TA.AperFunction,SMDPad,CuDef*%
%ADD13R,1.000000X1.900000*%
%TD*%
%TA.AperFunction,SMDPad,CuDef*%
%ADD14RoundRect,0.800000X0.800000X0.000010X-0.800000X0.000010X-0.800000X-0.000010X0.800000X-0.000010X0*%
%TD*%
%TA.AperFunction,ComponentPad*%
%ADD15C,1.600000*%
%TD*%
%TA.AperFunction,SMDPad,CuDef*%
%ADD16RoundRect,0.800000X-0.000010X0.800000X-0.000010X-0.800000X0.000010X-0.800000X0.000010X0.800000X0*%
%TD*%
%TA.AperFunction,ComponentPad*%
%ADD17R,1.600000X1.600000*%
%TD*%
%TA.AperFunction,SMDPad,CuDef*%
%ADD18R,1.600000X3.200000*%
%TD*%
%TA.AperFunction,ComponentPad*%
%ADD19R,2.000000X2.000000*%
%TD*%
%TA.AperFunction,ComponentPad*%
%ADD20C,2.000000*%
%TD*%
%TA.AperFunction,Conductor*%
%ADD21C,0.200000*%
%TD*%
G04 APERTURE END LIST*
D10*
%TA.AperFunction,EtchedComponent*%
%TO.C,svg2mod*%
G36*
X129807662Y-86385526D02*
G01*
X128540488Y-87117152D01*
X127293750Y-86370498D01*
X128560924Y-85638872D01*
X129807662Y-86385526D01*
G37*
%TD.AperFunction*%
%TA.AperFunction,EtchedComponent*%
G36*
X131421250Y-85368468D02*
G01*
X131421250Y-86831667D01*
X130151250Y-86125282D01*
X130151250Y-84662083D01*
X131421250Y-85368468D01*
G37*
%TD.AperFunction*%
%TA.AperFunction,EtchedComponent*%
G36*
X134011362Y-83828307D02*
G01*
X132744167Y-84559901D01*
X132720883Y-83106873D01*
X133988079Y-82375268D01*
X134011362Y-83828307D01*
G37*
%TD.AperFunction*%
%TA.AperFunction,EtchedComponent*%
G36*
X130148424Y-83106873D02*
G01*
X130125162Y-84559901D01*
X128857988Y-83828307D01*
X128881250Y-82375268D01*
X130148424Y-83106873D01*
G37*
%TD.AperFunction*%
%TA.AperFunction,EtchedComponent*%
G36*
X131421250Y-80516126D02*
G01*
X130151250Y-81222500D01*
X130151250Y-79759291D01*
X131421250Y-79052917D01*
X131421250Y-80516126D01*
G37*
%TD.AperFunction*%
%TA.AperFunction,EtchedComponent*%
G36*
X128560924Y-82207290D02*
G01*
X128537662Y-83660328D01*
X127270488Y-82928724D01*
X127293750Y-81475685D01*
X128560924Y-82207290D01*
G37*
%TD.AperFunction*%
%TA.AperFunction,EtchedComponent*%
G36*
X135598862Y-82928724D02*
G01*
X134331667Y-83660328D01*
X134308383Y-82207290D01*
X135575579Y-81475685D01*
X135598862Y-82928724D01*
G37*
%TD.AperFunction*%
%TA.AperFunction,EtchedComponent*%
G36*
X131421250Y-87167635D02*
G01*
X131421250Y-88630833D01*
X130151250Y-87924449D01*
X130151250Y-86461250D01*
X131421250Y-87167635D01*
G37*
%TD.AperFunction*%
%TA.AperFunction,EtchedComponent*%
G36*
X135575579Y-86370498D02*
G01*
X134328862Y-87117152D01*
X133061667Y-86385526D01*
X134308383Y-85638872D01*
X135575579Y-86370498D01*
G37*
%TD.AperFunction*%
%TD*%
D11*
%TO.P,J9,1,Pin_1*%
%TO.N,unconnected-(J9-Pin_1-Pad1)*%
X171590000Y-125000000D03*
D12*
%TO.P,J9,2,Pin_2*%
%TO.N,unconnected-(J9-Pin_2-Pad2)*%
X174130000Y-125000000D03*
%TO.P,J9,3,Pin_3*%
%TO.N,unconnected-(J9-Pin_3-Pad3)*%
X171590000Y-122460000D03*
%TO.P,J9,4,Pin_4*%
%TO.N,unconnected-(J9-Pin_4-Pad4)*%
X174130000Y-122460000D03*
%TO.P,J9,5,Pin_5*%
%TO.N,Net-(A1-D1{slash}TX)*%
X171590000Y-119920000D03*
%TO.P,J9,6,Pin_6*%
%TO.N,VCC*%
X174130000Y-119920000D03*
%TO.P,J9,7,Pin_7*%
%TO.N,unconnected-(J9-Pin_7-Pad7)*%
X171590000Y-117380000D03*
%TO.P,J9,8,Pin_8*%
%TO.N,unconnected-(J9-Pin_8-Pad8)*%
X174130000Y-117380000D03*
%TO.P,J9,9,Pin_9*%
%TO.N,unconnected-(J9-Pin_9-Pad9)*%
X171590000Y-114840000D03*
%TO.P,J9,10,Pin_10*%
%TO.N,Net-(A1-D0{slash}RX)*%
X174130000Y-114840000D03*
%TO.P,J9,11,Pin_11*%
%TO.N,unconnected-(J9-Pin_11-Pad11)*%
X171590000Y-112300000D03*
%TO.P,J9,12,Pin_12*%
%TO.N,unconnected-(J9-Pin_12-Pad12)*%
X174130000Y-112300000D03*
%TO.P,J9,13,Pin_13*%
%TO.N,unconnected-(J9-Pin_13-Pad13)*%
X171590000Y-109760000D03*
%TO.P,J9,14,Pin_14*%
%TO.N,unconnected-(J9-Pin_14-Pad14)*%
X174130000Y-109760000D03*
%TO.P,J9,15,Pin_15*%
%TO.N,unconnected-(J9-Pin_15-Pad15)*%
X171590000Y-107220000D03*
%TO.P,J9,16,Pin_16*%
%TO.N,unconnected-(J9-Pin_16-Pad16)*%
X174130000Y-107220000D03*
%TO.P,J9,17,Pin_17*%
%TO.N,unconnected-(J9-Pin_17-Pad17)*%
X171590000Y-104680000D03*
%TO.P,J9,18,Pin_18*%
%TO.N,unconnected-(J9-Pin_18-Pad18)*%
X174130000Y-104680000D03*
%TO.P,J9,19,Pin_19*%
%TO.N,unconnected-(J9-Pin_19-Pad19)*%
X171590000Y-102140000D03*
%TO.P,J9,20,Pin_20*%
%TO.N,unconnected-(J9-Pin_20-Pad20)*%
X174130000Y-102140000D03*
%TO.P,J9,21,Pin_21*%
%TO.N,unconnected-(J9-Pin_21-Pad21)*%
X171590000Y-99600000D03*
%TO.P,J9,22,Pin_22*%
%TO.N,unconnected-(J9-Pin_22-Pad22)*%
X174130000Y-99600000D03*
%TO.P,J9,23,Pin_23*%
%TO.N,unconnected-(J9-Pin_23-Pad23)*%
X171590000Y-97060000D03*
%TO.P,J9,24,Pin_24*%
%TO.N,unconnected-(J9-Pin_24-Pad24)*%
X174130000Y-97060000D03*
%TO.P,J9,25,Pin_25*%
%TO.N,unconnected-(J9-Pin_25-Pad25)*%
X171590000Y-94520000D03*
%TO.P,J9,26,Pin_26*%
%TO.N,unconnected-(J9-Pin_26-Pad26)*%
X174130000Y-94520000D03*
%TD*%
D11*
%TO.P,J8,1,Pin_1*%
%TO.N,unconnected-(J8-Pin_1-Pad1)*%
X125910000Y-125000000D03*
D12*
%TO.P,J8,2,Pin_2*%
%TO.N,unconnected-(J8-Pin_2-Pad2)*%
X128450000Y-125000000D03*
%TO.P,J8,3,Pin_3*%
%TO.N,unconnected-(J8-Pin_3-Pad3)*%
X125910000Y-122460000D03*
%TO.P,J8,4,Pin_4*%
%TO.N,unconnected-(J8-Pin_4-Pad4)*%
X128450000Y-122460000D03*
%TO.P,J8,5,Pin_5*%
%TO.N,unconnected-(J8-Pin_5-Pad5)*%
X125910000Y-119920000D03*
%TO.P,J8,6,Pin_6*%
%TO.N,unconnected-(J8-Pin_6-Pad6)*%
X128450000Y-119920000D03*
%TO.P,J8,7,Pin_7*%
%TO.N,unconnected-(J8-Pin_7-Pad7)*%
X125910000Y-117380000D03*
%TO.P,J8,8,Pin_8*%
%TO.N,unconnected-(J8-Pin_8-Pad8)*%
X128450000Y-117380000D03*
%TO.P,J8,9,Pin_9*%
%TO.N,GND*%
X125910000Y-114840000D03*
%TO.P,J8,10,Pin_10*%
%TO.N,Net-(J7-Pin_5)*%
X128450000Y-114840000D03*
%TO.P,J8,11,Pin_11*%
%TO.N,unconnected-(J8-Pin_11-Pad11)*%
X125910000Y-112300000D03*
%TO.P,J8,12,Pin_12*%
%TO.N,unconnected-(J8-Pin_12-Pad12)*%
X128450000Y-112300000D03*
%TO.P,J8,13,Pin_13*%
%TO.N,unconnected-(J8-Pin_13-Pad13)*%
X125910000Y-109760000D03*
%TO.P,J8,14,Pin_14*%
%TO.N,unconnected-(J8-Pin_14-Pad14)*%
X128450000Y-109760000D03*
%TO.P,J8,15,Pin_15*%
%TO.N,unconnected-(J8-Pin_15-Pad15)*%
X125910000Y-107220000D03*
%TO.P,J8,16,Pin_16*%
%TO.N,unconnected-(J8-Pin_16-Pad16)*%
X128450000Y-107220000D03*
%TO.P,J8,17,Pin_17*%
%TO.N,unconnected-(J8-Pin_17-Pad17)*%
X125910000Y-104680000D03*
%TO.P,J8,18,Pin_18*%
%TO.N,unconnected-(J8-Pin_18-Pad18)*%
X128450000Y-104680000D03*
%TO.P,J8,19,Pin_19*%
%TO.N,unconnected-(J8-Pin_19-Pad19)*%
X125910000Y-102140000D03*
%TO.P,J8,20,Pin_20*%
%TO.N,unconnected-(J8-Pin_20-Pad20)*%
X128450000Y-102140000D03*
%TO.P,J8,21,Pin_21*%
%TO.N,unconnected-(J8-Pin_21-Pad21)*%
X125910000Y-99600000D03*
%TO.P,J8,22,Pin_22*%
%TO.N,unconnected-(J8-Pin_22-Pad22)*%
X128450000Y-99600000D03*
%TO.P,J8,23,Pin_23*%
%TO.N,unconnected-(J8-Pin_23-Pad23)*%
X125910000Y-97060000D03*
%TO.P,J8,24,Pin_24*%
%TO.N,unconnected-(J8-Pin_24-Pad24)*%
X128450000Y-97060000D03*
%TO.P,J8,25,Pin_25*%
%TO.N,unconnected-(J8-Pin_25-Pad25)*%
X125910000Y-94520000D03*
%TO.P,J8,26,Pin_26*%
%TO.N,unconnected-(J8-Pin_26-Pad26)*%
X128450000Y-94520000D03*
%TD*%
D11*
%TO.P,J2,1,Pin_1*%
%TO.N,Net-(J1-Pin_1)*%
X142380000Y-77500000D03*
D12*
%TO.P,J2,2,Pin_2*%
%TO.N,Net-(J1-Pin_2)*%
X144920000Y-77500000D03*
%TO.P,J2,3,Pin_3*%
%TO.N,Net-(J1-Pin_3)*%
X147460000Y-77500000D03*
%TO.P,J2,4,Pin_4*%
%TO.N,Net-(J1-Pin_4)*%
X150000000Y-77500000D03*
%TO.P,J2,5,Pin_5*%
%TO.N,Net-(J1-Pin_5)*%
X152540000Y-77500000D03*
%TO.P,J2,6,Pin_6*%
%TO.N,Net-(J1-Pin_6)*%
X155080000Y-77500000D03*
%TO.P,J2,7,Pin_7*%
%TO.N,Net-(J1-Pin_7)*%
X157620000Y-77500000D03*
%TD*%
D13*
%TO.P,J3,7,Pin_7*%
%TO.N,Net-(J1-Pin_7)*%
X157620000Y-79150000D03*
%TO.P,J3,6,Pin_6*%
%TO.N,Net-(J1-Pin_6)*%
X155080000Y-75850000D03*
%TO.P,J3,5,Pin_5*%
%TO.N,Net-(J1-Pin_5)*%
X152540000Y-79150000D03*
%TO.P,J3,4,Pin_4*%
%TO.N,Net-(J1-Pin_4)*%
X150000000Y-75850000D03*
%TO.P,J3,3,Pin_3*%
%TO.N,Net-(J1-Pin_3)*%
X147460000Y-79150000D03*
%TO.P,J3,2,Pin_2*%
%TO.N,Net-(J1-Pin_2)*%
X144920000Y-75850000D03*
%TO.P,J3,1,Pin_1*%
%TO.N,Net-(J1-Pin_1)*%
X142380000Y-79150000D03*
%TD*%
D11*
%TO.P,J1,1,Pin_1*%
%TO.N,Net-(J1-Pin_1)*%
X142380000Y-89170000D03*
D12*
%TO.P,J1,2,Pin_2*%
%TO.N,Net-(J1-Pin_2)*%
X144920000Y-89170000D03*
%TO.P,J1,3,Pin_3*%
%TO.N,Net-(J1-Pin_3)*%
X147460000Y-89170000D03*
%TO.P,J1,4,Pin_4*%
%TO.N,Net-(J1-Pin_4)*%
X150000000Y-89170000D03*
%TO.P,J1,5,Pin_5*%
%TO.N,Net-(J1-Pin_5)*%
X152540000Y-89170000D03*
%TO.P,J1,6,Pin_6*%
%TO.N,Net-(J1-Pin_6)*%
X155080000Y-89170000D03*
%TO.P,J1,7,Pin_7*%
%TO.N,Net-(J1-Pin_7)*%
X157620000Y-89170000D03*
%TD*%
D14*
%TO.P,A1,30,VIN*%
%TO.N,VCC*%
X139795000Y-107260000D03*
D15*
X140595000Y-107260000D03*
D16*
%TO.P,A1,29,GND*%
%TO.N,GND*%
X151270000Y-104160000D03*
D17*
X151270000Y-104960000D03*
D15*
%TO.P,A1,27,+5V*%
%TO.N,unconnected-(A1-+5V-Pad27)*%
X159405000Y-104720000D03*
D14*
X160205000Y-104720000D03*
%TO.P,A1,24,A5*%
%TO.N,unconnected-(A1-A5-Pad24)*%
X139795000Y-122500000D03*
D15*
X140595000Y-122500000D03*
D14*
%TO.P,A1,23,A4*%
%TO.N,unconnected-(A1-A4-Pad23)*%
X139795000Y-119960000D03*
D15*
X140595000Y-119960000D03*
D14*
%TO.P,A1,22,A3*%
%TO.N,unconnected-(A1-A3-Pad22)*%
X139795000Y-117420000D03*
D15*
X140595000Y-117420000D03*
D14*
%TO.P,A1,21,A2*%
%TO.N,unconnected-(A1-A2-Pad21)*%
X139795000Y-114880000D03*
D15*
X140595000Y-114880000D03*
D14*
%TO.P,A1,20,A1*%
%TO.N,unconnected-(A1-A1-Pad20)*%
X139795000Y-112340000D03*
D15*
X140595000Y-112340000D03*
D14*
%TO.P,A1,19,A0*%
%TO.N,unconnected-(A1-A0-Pad19)*%
X139795000Y-109800000D03*
D15*
X140595000Y-109800000D03*
D16*
%TO.P,A1,16,D13*%
%TO.N,Net-(A1-D13)*%
X148730000Y-104160000D03*
D15*
X148730000Y-104960000D03*
D16*
%TO.P,A1,15,D12*%
%TO.N,Net-(A1-D12)*%
X153810000Y-104160000D03*
D15*
X153810000Y-104960000D03*
D16*
%TO.P,A1,14,D11*%
%TO.N,Net-(A1-D11)*%
X156350000Y-104160000D03*
D15*
X156350000Y-104960000D03*
%TO.P,A1,13,D10*%
%TO.N,Net-(A1-D10)*%
X159405000Y-107260000D03*
D14*
X160205000Y-107260000D03*
D15*
%TO.P,A1,12,D9*%
%TO.N,unconnected-(A1-D9-Pad12)*%
X159405000Y-109800000D03*
D14*
X160205000Y-109800000D03*
D15*
%TO.P,A1,11,D8*%
%TO.N,unconnected-(A1-D8-Pad11)*%
X159405000Y-112340000D03*
D14*
X160205000Y-112340000D03*
D15*
%TO.P,A1,10,D7*%
%TO.N,unconnected-(A1-D7-Pad10)*%
X159405000Y-114880000D03*
D14*
X160205000Y-114880000D03*
D15*
%TO.P,A1,9,D6*%
%TO.N,unconnected-(A1-D6-Pad9)*%
X159405000Y-117420000D03*
D14*
X160205000Y-117420000D03*
D15*
%TO.P,A1,8,D5*%
%TO.N,unconnected-(A1-D5-Pad8)*%
X159405000Y-119960000D03*
D14*
X160205000Y-119960000D03*
D15*
%TO.P,A1,7,D4*%
%TO.N,unconnected-(A1-D4-Pad7)*%
X159405000Y-122500000D03*
D14*
X160205000Y-122500000D03*
D15*
%TO.P,A1,6,D3*%
%TO.N,unconnected-(A1-D3-Pad6)*%
X159405000Y-125040000D03*
D14*
X160205000Y-125040000D03*
%TO.P,A1,4,GND*%
%TO.N,GND*%
X139795000Y-104720000D03*
D17*
X140595000Y-104720000D03*
D14*
%TO.P,A1,3,~{RESET}*%
%TO.N,unconnected-(A1-~{RESET}-Pad3)*%
X139795000Y-125040000D03*
D15*
X140595000Y-125040000D03*
D16*
%TO.P,A1,2,D0/RX*%
%TO.N,Net-(A1-D0{slash}RX)*%
X146190000Y-104160000D03*
D15*
X146190000Y-104960000D03*
D18*
%TO.P,A1,1,D1/TX*%
%TO.N,Net-(A1-D1{slash}TX)*%
X143650000Y-104160000D03*
D15*
X143650000Y-104960000D03*
%TD*%
D19*
%TO.P,J7,1,Pin_1*%
%TO.N,unconnected-(J7-Pin_1-Pad1)*%
X121000000Y-84000000D03*
D20*
%TO.P,J7,2,Pin_2*%
%TO.N,unconnected-(J7-Pin_2-Pad2)*%
X121000000Y-88000000D03*
%TO.P,J7,3,Pin_3*%
%TO.N,Net-(A1-D13)*%
X121000000Y-92000000D03*
%TO.P,J7,4,Pin_4*%
%TO.N,Net-(A1-D10)*%
X121000000Y-96000000D03*
%TO.P,J7,5,Pin_5*%
%TO.N,Net-(J7-Pin_5)*%
X121000000Y-100000000D03*
%TO.P,J7,6,Pin_6*%
%TO.N,GND*%
X121000000Y-104000000D03*
%TO.P,J7,7,Pin_7*%
%TO.N,unconnected-(J7-Pin_7-Pad7)*%
X121000000Y-108000000D03*
%TO.P,J7,8,Pin_8*%
%TO.N,Net-(A1-D11)*%
X121000000Y-112000000D03*
%TO.P,J7,9,Pin_9*%
%TO.N,Net-(A1-D12)*%
X121000000Y-116000000D03*
%TD*%
D21*
%TO.N,Net-(A1-D13)*%
X145321000Y-100751000D02*
X148730000Y-104160000D01*
X123911108Y-100751000D02*
X145321000Y-100751000D01*
X119699000Y-96538892D02*
X123911108Y-100751000D01*
X119699000Y-93301000D02*
X119699000Y-96538892D01*
X121000000Y-92000000D02*
X119699000Y-93301000D01*
%TO.N,Net-(A1-D10)*%
X123211000Y-98211000D02*
X156053050Y-98211000D01*
X158304000Y-100461950D02*
X158304000Y-106159000D01*
X158304000Y-106159000D02*
X159405000Y-107260000D01*
X121000000Y-96000000D02*
X123211000Y-98211000D01*
X156053050Y-98211000D02*
X158304000Y-100461950D01*
%TO.N,GND*%
X132400000Y-111915000D02*
X139595000Y-104720000D01*
X139595000Y-104720000D02*
X140595000Y-104720000D01*
X129324000Y-115991000D02*
X132400000Y-112915000D01*
X132400000Y-112915000D02*
X132400000Y-111915000D01*
X127061000Y-115991000D02*
X129324000Y-115991000D01*
X125910000Y-114840000D02*
X127061000Y-115991000D01*
%TO.N,Net-(J7-Pin_5)*%
X127299000Y-109521240D02*
X127299000Y-112897000D01*
X126386760Y-108609000D02*
X127299000Y-109521240D01*
X128450000Y-114048000D02*
X128450000Y-114840000D01*
X125009000Y-108609000D02*
X126386760Y-108609000D01*
X123801000Y-102801000D02*
X123801000Y-107401000D01*
X123801000Y-107401000D02*
X125009000Y-108609000D01*
X121000000Y-100000000D02*
X123801000Y-102801000D01*
X127299000Y-112897000D02*
X128450000Y-114048000D01*
%TO.N,GND*%
X123400000Y-112330000D02*
X123400000Y-106400000D01*
X123400000Y-106400000D02*
X121000000Y-104000000D01*
X125910000Y-114840000D02*
X123400000Y-112330000D01*
%TO.N,Net-(A1-D0{slash}RX)*%
X154919000Y-113689000D02*
X146190000Y-104960000D01*
X172979000Y-113689000D02*
X154919000Y-113689000D01*
X174130000Y-114840000D02*
X172979000Y-113689000D01*
%TO.N,VCC*%
X154406000Y-121071000D02*
X140595000Y-107260000D01*
X172979000Y-121071000D02*
X154406000Y-121071000D01*
X174130000Y-119920000D02*
X172979000Y-121071000D01*
%TO.N,Net-(A1-D1{slash}TX)*%
X157390000Y-118700000D02*
X143650000Y-104960000D01*
X170370000Y-118700000D02*
X157390000Y-118700000D01*
X171590000Y-119920000D02*
X170370000Y-118700000D01*
%TO.N,Net-(J1-Pin_7)*%
X157620000Y-79150000D02*
X157620000Y-89170000D01*
%TO.N,Net-(J1-Pin_6)*%
X155080000Y-77500000D02*
X155080000Y-89170000D01*
%TO.N,Net-(J1-Pin_5)*%
X152540000Y-79150000D02*
X152540000Y-89170000D01*
%TO.N,Net-(J1-Pin_4)*%
X150000000Y-77500000D02*
X150000000Y-89170000D01*
%TO.N,Net-(J1-Pin_3)*%
X147460000Y-79150000D02*
X147460000Y-89170000D01*
%TO.N,Net-(J1-Pin_2)*%
X144920000Y-77500000D02*
X144920000Y-89170000D01*
%TO.N,Net-(J1-Pin_1)*%
X142380000Y-89170000D02*
X142380000Y-79150000D01*
%TD*%
M02*
