%TF.GenerationSoftware,KiCad,Pcbnew,9.0.3*%
%TF.CreationDate,2025-07-27T20:55:45+02:00*%
%TF.ProjectId,Pololu Zumo 32U4 controller shield,506f6c6f-6c75-4205-9a75-6d6f20333255,rev?*%
%TF.SameCoordinates,Original*%
%TF.FileFunction,Copper,L2,Bot*%
%TF.FilePolarity,Positive*%
%FSLAX46Y46*%
G04 Gerber Fmt 4.6, Leading zero omitted, Abs format (unit mm)*
G04 Created by KiCad (PCBNEW 9.0.3) date 2025-07-27 20:55:45*
%MOMM*%
%LPD*%
G01*
G04 APERTURE LIST*
%TA.AperFunction,ComponentPad*%
%ADD10R,1.700000X1.700000*%
%TD*%
%TA.AperFunction,ComponentPad*%
%ADD11C,1.700000*%
%TD*%
%TA.AperFunction,ComponentPad*%
%ADD12C,1.600000*%
%TD*%
%TA.AperFunction,ComponentPad*%
%ADD13R,1.600000X1.600000*%
%TD*%
%TA.AperFunction,ComponentPad*%
%ADD14R,2.000000X2.000000*%
%TD*%
%TA.AperFunction,ComponentPad*%
%ADD15C,2.000000*%
%TD*%
%TA.AperFunction,Conductor*%
%ADD16C,0.200000*%
%TD*%
G04 APERTURE END LIST*
D10*
%TO.P,J9,1,Pin_1*%
%TO.N,unconnected-(J9-Pin_1-Pad1)*%
X171590000Y-125000000D03*
D11*
%TO.P,J9,2,Pin_2*%
%TO.N,unconnected-(J9-Pin_2-Pad2)*%
X174130000Y-125000000D03*
%TO.P,J9,3,Pin_3*%
%TO.N,unconnected-(J9-Pin_3-Pad3)*%
X171590000Y-122460000D03*
%TO.P,J9,4,Pin_4*%
%TO.N,unconnected-(J9-Pin_4-Pad4)*%
X174130000Y-122460000D03*
%TO.P,J9,5,Pin_5*%
%TO.N,Net-(A1-D1{slash}TX)*%
X171590000Y-119920000D03*
%TO.P,J9,6,Pin_6*%
%TO.N,VCC*%
X174130000Y-119920000D03*
%TO.P,J9,7,Pin_7*%
%TO.N,unconnected-(J9-Pin_7-Pad7)*%
X171590000Y-117380000D03*
%TO.P,J9,8,Pin_8*%
%TO.N,unconnected-(J9-Pin_8-Pad8)*%
X174130000Y-117380000D03*
%TO.P,J9,9,Pin_9*%
%TO.N,unconnected-(J9-Pin_9-Pad9)*%
X171590000Y-114840000D03*
%TO.P,J9,10,Pin_10*%
%TO.N,Net-(A1-D0{slash}RX)*%
X174130000Y-114840000D03*
%TO.P,J9,11,Pin_11*%
%TO.N,unconnected-(J9-Pin_11-Pad11)*%
X171590000Y-112300000D03*
%TO.P,J9,12,Pin_12*%
%TO.N,unconnected-(J9-Pin_12-Pad12)*%
X174130000Y-112300000D03*
%TO.P,J9,13,Pin_13*%
%TO.N,unconnected-(J9-Pin_13-Pad13)*%
X171590000Y-109760000D03*
%TO.P,J9,14,Pin_14*%
%TO.N,unconnected-(J9-Pin_14-Pad14)*%
X174130000Y-109760000D03*
%TO.P,J9,15,Pin_15*%
%TO.N,unconnected-(J9-Pin_15-Pad15)*%
X171590000Y-107220000D03*
%TO.P,J9,16,Pin_16*%
%TO.N,unconnected-(J9-Pin_16-Pad16)*%
X174130000Y-107220000D03*
%TO.P,J9,17,Pin_17*%
%TO.N,unconnected-(J9-Pin_17-Pad17)*%
X171590000Y-104680000D03*
%TO.P,J9,18,Pin_18*%
%TO.N,unconnected-(J9-Pin_18-Pad18)*%
X174130000Y-104680000D03*
%TO.P,J9,19,Pin_19*%
%TO.N,unconnected-(J9-Pin_19-Pad19)*%
X171590000Y-102140000D03*
%TO.P,J9,20,Pin_20*%
%TO.N,unconnected-(J9-Pin_20-Pad20)*%
X174130000Y-102140000D03*
%TO.P,J9,21,Pin_21*%
%TO.N,unconnected-(J9-Pin_21-Pad21)*%
X171590000Y-99600000D03*
%TO.P,J9,22,Pin_22*%
%TO.N,unconnected-(J9-Pin_22-Pad22)*%
X174130000Y-99600000D03*
%TO.P,J9,23,Pin_23*%
%TO.N,unconnected-(J9-Pin_23-Pad23)*%
X171590000Y-97060000D03*
%TO.P,J9,24,Pin_24*%
%TO.N,unconnected-(J9-Pin_24-Pad24)*%
X174130000Y-97060000D03*
%TO.P,J9,25,Pin_25*%
%TO.N,unconnected-(J9-Pin_25-Pad25)*%
X171590000Y-94520000D03*
%TO.P,J9,26,Pin_26*%
%TO.N,unconnected-(J9-Pin_26-Pad26)*%
X174130000Y-94520000D03*
%TD*%
D10*
%TO.P,J8,1,Pin_1*%
%TO.N,unconnected-(J8-Pin_1-Pad1)*%
X125910000Y-125000000D03*
D11*
%TO.P,J8,2,Pin_2*%
%TO.N,unconnected-(J8-Pin_2-Pad2)*%
X128450000Y-125000000D03*
%TO.P,J8,3,Pin_3*%
%TO.N,unconnected-(J8-Pin_3-Pad3)*%
X125910000Y-122460000D03*
%TO.P,J8,4,Pin_4*%
%TO.N,unconnected-(J8-Pin_4-Pad4)*%
X128450000Y-122460000D03*
%TO.P,J8,5,Pin_5*%
%TO.N,unconnected-(J8-Pin_5-Pad5)*%
X125910000Y-119920000D03*
%TO.P,J8,6,Pin_6*%
%TO.N,unconnected-(J8-Pin_6-Pad6)*%
X128450000Y-119920000D03*
%TO.P,J8,7,Pin_7*%
%TO.N,unconnected-(J8-Pin_7-Pad7)*%
X125910000Y-117380000D03*
%TO.P,J8,8,Pin_8*%
%TO.N,unconnected-(J8-Pin_8-Pad8)*%
X128450000Y-117380000D03*
%TO.P,J8,9,Pin_9*%
%TO.N,GND*%
X125910000Y-114840000D03*
%TO.P,J8,10,Pin_10*%
%TO.N,Net-(J7-Pin_5)*%
X128450000Y-114840000D03*
%TO.P,J8,11,Pin_11*%
%TO.N,unconnected-(J8-Pin_11-Pad11)*%
X125910000Y-112300000D03*
%TO.P,J8,12,Pin_12*%
%TO.N,unconnected-(J8-Pin_12-Pad12)*%
X128450000Y-112300000D03*
%TO.P,J8,13,Pin_13*%
%TO.N,unconnected-(J8-Pin_13-Pad13)*%
X125910000Y-109760000D03*
%TO.P,J8,14,Pin_14*%
%TO.N,unconnected-(J8-Pin_14-Pad14)*%
X128450000Y-109760000D03*
%TO.P,J8,15,Pin_15*%
%TO.N,unconnected-(J8-Pin_15-Pad15)*%
X125910000Y-107220000D03*
%TO.P,J8,16,Pin_16*%
%TO.N,unconnected-(J8-Pin_16-Pad16)*%
X128450000Y-107220000D03*
%TO.P,J8,17,Pin_17*%
%TO.N,unconnected-(J8-Pin_17-Pad17)*%
X125910000Y-104680000D03*
%TO.P,J8,18,Pin_18*%
%TO.N,unconnected-(J8-Pin_18-Pad18)*%
X128450000Y-104680000D03*
%TO.P,J8,19,Pin_19*%
%TO.N,unconnected-(J8-Pin_19-Pad19)*%
X125910000Y-102140000D03*
%TO.P,J8,20,Pin_20*%
%TO.N,unconnected-(J8-Pin_20-Pad20)*%
X128450000Y-102140000D03*
%TO.P,J8,21,Pin_21*%
%TO.N,unconnected-(J8-Pin_21-Pad21)*%
X125910000Y-99600000D03*
%TO.P,J8,22,Pin_22*%
%TO.N,unconnected-(J8-Pin_22-Pad22)*%
X128450000Y-99600000D03*
%TO.P,J8,23,Pin_23*%
%TO.N,unconnected-(J8-Pin_23-Pad23)*%
X125910000Y-97060000D03*
%TO.P,J8,24,Pin_24*%
%TO.N,unconnected-(J8-Pin_24-Pad24)*%
X128450000Y-97060000D03*
%TO.P,J8,25,Pin_25*%
%TO.N,unconnected-(J8-Pin_25-Pad25)*%
X125910000Y-94520000D03*
%TO.P,J8,26,Pin_26*%
%TO.N,unconnected-(J8-Pin_26-Pad26)*%
X128450000Y-94520000D03*
%TD*%
D10*
%TO.P,J2,1,Pin_1*%
%TO.N,Net-(J1-Pin_1)*%
X142380000Y-77500000D03*
D11*
%TO.P,J2,2,Pin_2*%
%TO.N,Net-(J1-Pin_2)*%
X144920000Y-77500000D03*
%TO.P,J2,3,Pin_3*%
%TO.N,Net-(J1-Pin_3)*%
X147460000Y-77500000D03*
%TO.P,J2,4,Pin_4*%
%TO.N,Net-(J1-Pin_4)*%
X150000000Y-77500000D03*
%TO.P,J2,5,Pin_5*%
%TO.N,Net-(J1-Pin_5)*%
X152540000Y-77500000D03*
%TO.P,J2,6,Pin_6*%
%TO.N,Net-(J1-Pin_6)*%
X155080000Y-77500000D03*
%TO.P,J2,7,Pin_7*%
%TO.N,Net-(J1-Pin_7)*%
X157620000Y-77500000D03*
%TD*%
D10*
%TO.P,J1,1,Pin_1*%
%TO.N,Net-(J1-Pin_1)*%
X142380000Y-89170000D03*
D11*
%TO.P,J1,2,Pin_2*%
%TO.N,Net-(J1-Pin_2)*%
X144920000Y-89170000D03*
%TO.P,J1,3,Pin_3*%
%TO.N,Net-(J1-Pin_3)*%
X147460000Y-89170000D03*
%TO.P,J1,4,Pin_4*%
%TO.N,Net-(J1-Pin_4)*%
X150000000Y-89170000D03*
%TO.P,J1,5,Pin_5*%
%TO.N,Net-(J1-Pin_5)*%
X152540000Y-89170000D03*
%TO.P,J1,6,Pin_6*%
%TO.N,Net-(J1-Pin_6)*%
X155080000Y-89170000D03*
%TO.P,J1,7,Pin_7*%
%TO.N,Net-(J1-Pin_7)*%
X157620000Y-89170000D03*
%TD*%
D12*
%TO.P,A1,30,VIN*%
%TO.N,VCC*%
X140595000Y-107260000D03*
D13*
%TO.P,A1,29,GND*%
%TO.N,GND*%
X151270000Y-104960000D03*
D12*
%TO.P,A1,27,+5V*%
%TO.N,unconnected-(A1-+5V-Pad27)*%
X159405000Y-104720000D03*
%TO.P,A1,24,A5*%
%TO.N,unconnected-(A1-A5-Pad24)*%
X140595000Y-122500000D03*
%TO.P,A1,23,A4*%
%TO.N,unconnected-(A1-A4-Pad23)*%
X140595000Y-119960000D03*
%TO.P,A1,22,A3*%
%TO.N,unconnected-(A1-A3-Pad22)*%
X140595000Y-117420000D03*
%TO.P,A1,21,A2*%
%TO.N,unconnected-(A1-A2-Pad21)*%
X140595000Y-114880000D03*
%TO.P,A1,20,A1*%
%TO.N,unconnected-(A1-A1-Pad20)*%
X140595000Y-112340000D03*
%TO.P,A1,19,A0*%
%TO.N,unconnected-(A1-A0-Pad19)*%
X140595000Y-109800000D03*
%TO.P,A1,16,D13*%
%TO.N,Net-(A1-D13)*%
X148730000Y-104960000D03*
%TO.P,A1,15,D12*%
%TO.N,Net-(A1-D12)*%
X153810000Y-104960000D03*
%TO.P,A1,14,D11*%
%TO.N,Net-(A1-D11)*%
X156350000Y-104960000D03*
%TO.P,A1,13,D10*%
%TO.N,Net-(A1-D10)*%
X159405000Y-107260000D03*
%TO.P,A1,12,D9*%
%TO.N,unconnected-(A1-D9-Pad12)*%
X159405000Y-109800000D03*
%TO.P,A1,11,D8*%
%TO.N,unconnected-(A1-D8-Pad11)*%
X159405000Y-112340000D03*
%TO.P,A1,10,D7*%
%TO.N,unconnected-(A1-D7-Pad10)*%
X159405000Y-114880000D03*
%TO.P,A1,9,D6*%
%TO.N,unconnected-(A1-D6-Pad9)*%
X159405000Y-117420000D03*
%TO.P,A1,8,D5*%
%TO.N,unconnected-(A1-D5-Pad8)*%
X159405000Y-119960000D03*
%TO.P,A1,7,D4*%
%TO.N,unconnected-(A1-D4-Pad7)*%
X159405000Y-122500000D03*
%TO.P,A1,6,D3*%
%TO.N,unconnected-(A1-D3-Pad6)*%
X159405000Y-125040000D03*
D13*
%TO.P,A1,4,GND*%
%TO.N,GND*%
X140595000Y-104720000D03*
D12*
%TO.P,A1,3,~{RESET}*%
%TO.N,unconnected-(A1-~{RESET}-Pad3)*%
X140595000Y-125040000D03*
%TO.P,A1,2,D0/RX*%
%TO.N,Net-(A1-D0{slash}RX)*%
X146190000Y-104960000D03*
%TO.P,A1,1,D1/TX*%
%TO.N,Net-(A1-D1{slash}TX)*%
X143650000Y-104960000D03*
%TD*%
D14*
%TO.P,J7,1,Pin_1*%
%TO.N,unconnected-(J7-Pin_1-Pad1)*%
X121000000Y-84000000D03*
D15*
%TO.P,J7,2,Pin_2*%
%TO.N,unconnected-(J7-Pin_2-Pad2)*%
X121000000Y-88000000D03*
%TO.P,J7,3,Pin_3*%
%TO.N,Net-(A1-D13)*%
X121000000Y-92000000D03*
%TO.P,J7,4,Pin_4*%
%TO.N,Net-(A1-D10)*%
X121000000Y-96000000D03*
%TO.P,J7,5,Pin_5*%
%TO.N,Net-(J7-Pin_5)*%
X121000000Y-100000000D03*
%TO.P,J7,6,Pin_6*%
%TO.N,GND*%
X121000000Y-104000000D03*
%TO.P,J7,7,Pin_7*%
%TO.N,unconnected-(J7-Pin_7-Pad7)*%
X121000000Y-108000000D03*
%TO.P,J7,8,Pin_8*%
%TO.N,Net-(A1-D11)*%
X121000000Y-112000000D03*
%TO.P,J7,9,Pin_9*%
%TO.N,Net-(A1-D12)*%
X121000000Y-116000000D03*
%TD*%
D16*
%TO.N,GND*%
X141456000Y-103859000D02*
X150169000Y-103859000D01*
X140595000Y-104720000D02*
X141456000Y-103859000D01*
X150169000Y-103859000D02*
X151270000Y-104960000D01*
%TO.N,Net-(A1-D11)*%
X128688760Y-111149000D02*
X121851000Y-111149000D01*
X131138760Y-108699000D02*
X128688760Y-111149000D01*
X131138760Y-108361240D02*
X131138760Y-108699000D01*
X152890000Y-101500000D02*
X138000000Y-101500000D01*
X138000000Y-101500000D02*
X131138760Y-108361240D01*
X156350000Y-104960000D02*
X152890000Y-101500000D01*
X121851000Y-111149000D02*
X121000000Y-112000000D01*
%TO.N,Net-(A1-D12)*%
X142770000Y-116000000D02*
X121000000Y-116000000D01*
X153810000Y-104960000D02*
X142770000Y-116000000D01*
%TD*%
M02*
