%TF.GenerationSoftware,KiCad,Pcbnew,9.0.3*%
%TF.CreationDate,2025-07-27T20:55:45+02:00*%
%TF.ProjectId,Pololu Zumo 32U4 controller shield,506f6c6f-6c75-4205-9a75-6d6f20333255,rev?*%
%TF.SameCoordinates,Original*%
%TF.FileFunction,Legend,Bot*%
%TF.FilePolarity,Positive*%
%FSLAX46Y46*%
G04 Gerber Fmt 4.6, Leading zero omitted, Abs format (unit mm)*
G04 Created by KiCad (PCBNEW 9.0.3) date 2025-07-27 20:55:45*
%MOMM*%
%LPD*%
G01*
G04 APERTURE LIST*
%ADD10C,0.100000*%
%ADD11C,0.150000*%
%ADD12C,0.120000*%
G04 APERTURE END LIST*
D10*
X157285714Y-113847475D02*
X157285714Y-112847475D01*
X157285714Y-112847475D02*
X156904762Y-112847475D01*
X156904762Y-112847475D02*
X156809524Y-112895094D01*
X156809524Y-112895094D02*
X156761905Y-112942713D01*
X156761905Y-112942713D02*
X156714286Y-113037951D01*
X156714286Y-113037951D02*
X156714286Y-113180808D01*
X156714286Y-113180808D02*
X156761905Y-113276046D01*
X156761905Y-113276046D02*
X156809524Y-113323665D01*
X156809524Y-113323665D02*
X156904762Y-113371284D01*
X156904762Y-113371284D02*
X157285714Y-113371284D01*
X156142857Y-113847475D02*
X156238095Y-113799856D01*
X156238095Y-113799856D02*
X156285714Y-113752236D01*
X156285714Y-113752236D02*
X156333333Y-113656998D01*
X156333333Y-113656998D02*
X156333333Y-113371284D01*
X156333333Y-113371284D02*
X156285714Y-113276046D01*
X156285714Y-113276046D02*
X156238095Y-113228427D01*
X156238095Y-113228427D02*
X156142857Y-113180808D01*
X156142857Y-113180808D02*
X156000000Y-113180808D01*
X156000000Y-113180808D02*
X155904762Y-113228427D01*
X155904762Y-113228427D02*
X155857143Y-113276046D01*
X155857143Y-113276046D02*
X155809524Y-113371284D01*
X155809524Y-113371284D02*
X155809524Y-113656998D01*
X155809524Y-113656998D02*
X155857143Y-113752236D01*
X155857143Y-113752236D02*
X155904762Y-113799856D01*
X155904762Y-113799856D02*
X156000000Y-113847475D01*
X156000000Y-113847475D02*
X156142857Y-113847475D01*
X155238095Y-113847475D02*
X155333333Y-113799856D01*
X155333333Y-113799856D02*
X155380952Y-113704617D01*
X155380952Y-113704617D02*
X155380952Y-112847475D01*
X154714285Y-113847475D02*
X154809523Y-113799856D01*
X154809523Y-113799856D02*
X154857142Y-113752236D01*
X154857142Y-113752236D02*
X154904761Y-113656998D01*
X154904761Y-113656998D02*
X154904761Y-113371284D01*
X154904761Y-113371284D02*
X154857142Y-113276046D01*
X154857142Y-113276046D02*
X154809523Y-113228427D01*
X154809523Y-113228427D02*
X154714285Y-113180808D01*
X154714285Y-113180808D02*
X154571428Y-113180808D01*
X154571428Y-113180808D02*
X154476190Y-113228427D01*
X154476190Y-113228427D02*
X154428571Y-113276046D01*
X154428571Y-113276046D02*
X154380952Y-113371284D01*
X154380952Y-113371284D02*
X154380952Y-113656998D01*
X154380952Y-113656998D02*
X154428571Y-113752236D01*
X154428571Y-113752236D02*
X154476190Y-113799856D01*
X154476190Y-113799856D02*
X154571428Y-113847475D01*
X154571428Y-113847475D02*
X154714285Y-113847475D01*
X153809523Y-113847475D02*
X153904761Y-113799856D01*
X153904761Y-113799856D02*
X153952380Y-113704617D01*
X153952380Y-113704617D02*
X153952380Y-112847475D01*
X152999999Y-113180808D02*
X152999999Y-113847475D01*
X153428570Y-113180808D02*
X153428570Y-113704617D01*
X153428570Y-113704617D02*
X153380951Y-113799856D01*
X153380951Y-113799856D02*
X153285713Y-113847475D01*
X153285713Y-113847475D02*
X153142856Y-113847475D01*
X153142856Y-113847475D02*
X153047618Y-113799856D01*
X153047618Y-113799856D02*
X152999999Y-113752236D01*
X151857141Y-112847475D02*
X151190475Y-112847475D01*
X151190475Y-112847475D02*
X151857141Y-113847475D01*
X151857141Y-113847475D02*
X151190475Y-113847475D01*
X150380951Y-113180808D02*
X150380951Y-113847475D01*
X150809522Y-113180808D02*
X150809522Y-113704617D01*
X150809522Y-113704617D02*
X150761903Y-113799856D01*
X150761903Y-113799856D02*
X150666665Y-113847475D01*
X150666665Y-113847475D02*
X150523808Y-113847475D01*
X150523808Y-113847475D02*
X150428570Y-113799856D01*
X150428570Y-113799856D02*
X150380951Y-113752236D01*
X149904760Y-113847475D02*
X149904760Y-113180808D01*
X149904760Y-113276046D02*
X149857141Y-113228427D01*
X149857141Y-113228427D02*
X149761903Y-113180808D01*
X149761903Y-113180808D02*
X149619046Y-113180808D01*
X149619046Y-113180808D02*
X149523808Y-113228427D01*
X149523808Y-113228427D02*
X149476189Y-113323665D01*
X149476189Y-113323665D02*
X149476189Y-113847475D01*
X149476189Y-113323665D02*
X149428570Y-113228427D01*
X149428570Y-113228427D02*
X149333332Y-113180808D01*
X149333332Y-113180808D02*
X149190475Y-113180808D01*
X149190475Y-113180808D02*
X149095236Y-113228427D01*
X149095236Y-113228427D02*
X149047617Y-113323665D01*
X149047617Y-113323665D02*
X149047617Y-113847475D01*
X148428570Y-113847475D02*
X148523808Y-113799856D01*
X148523808Y-113799856D02*
X148571427Y-113752236D01*
X148571427Y-113752236D02*
X148619046Y-113656998D01*
X148619046Y-113656998D02*
X148619046Y-113371284D01*
X148619046Y-113371284D02*
X148571427Y-113276046D01*
X148571427Y-113276046D02*
X148523808Y-113228427D01*
X148523808Y-113228427D02*
X148428570Y-113180808D01*
X148428570Y-113180808D02*
X148285713Y-113180808D01*
X148285713Y-113180808D02*
X148190475Y-113228427D01*
X148190475Y-113228427D02*
X148142856Y-113276046D01*
X148142856Y-113276046D02*
X148095237Y-113371284D01*
X148095237Y-113371284D02*
X148095237Y-113656998D01*
X148095237Y-113656998D02*
X148142856Y-113752236D01*
X148142856Y-113752236D02*
X148190475Y-113799856D01*
X148190475Y-113799856D02*
X148285713Y-113847475D01*
X148285713Y-113847475D02*
X148428570Y-113847475D01*
X146999998Y-112847475D02*
X146380951Y-112847475D01*
X146380951Y-112847475D02*
X146714284Y-113228427D01*
X146714284Y-113228427D02*
X146571427Y-113228427D01*
X146571427Y-113228427D02*
X146476189Y-113276046D01*
X146476189Y-113276046D02*
X146428570Y-113323665D01*
X146428570Y-113323665D02*
X146380951Y-113418903D01*
X146380951Y-113418903D02*
X146380951Y-113656998D01*
X146380951Y-113656998D02*
X146428570Y-113752236D01*
X146428570Y-113752236D02*
X146476189Y-113799856D01*
X146476189Y-113799856D02*
X146571427Y-113847475D01*
X146571427Y-113847475D02*
X146857141Y-113847475D01*
X146857141Y-113847475D02*
X146952379Y-113799856D01*
X146952379Y-113799856D02*
X146999998Y-113752236D01*
X145999998Y-112942713D02*
X145952379Y-112895094D01*
X145952379Y-112895094D02*
X145857141Y-112847475D01*
X145857141Y-112847475D02*
X145619046Y-112847475D01*
X145619046Y-112847475D02*
X145523808Y-112895094D01*
X145523808Y-112895094D02*
X145476189Y-112942713D01*
X145476189Y-112942713D02*
X145428570Y-113037951D01*
X145428570Y-113037951D02*
X145428570Y-113133189D01*
X145428570Y-113133189D02*
X145476189Y-113276046D01*
X145476189Y-113276046D02*
X146047617Y-113847475D01*
X146047617Y-113847475D02*
X145428570Y-113847475D01*
X144999998Y-112847475D02*
X144999998Y-113656998D01*
X144999998Y-113656998D02*
X144952379Y-113752236D01*
X144952379Y-113752236D02*
X144904760Y-113799856D01*
X144904760Y-113799856D02*
X144809522Y-113847475D01*
X144809522Y-113847475D02*
X144619046Y-113847475D01*
X144619046Y-113847475D02*
X144523808Y-113799856D01*
X144523808Y-113799856D02*
X144476189Y-113752236D01*
X144476189Y-113752236D02*
X144428570Y-113656998D01*
X144428570Y-113656998D02*
X144428570Y-112847475D01*
X143523808Y-113180808D02*
X143523808Y-113847475D01*
X143761903Y-112799856D02*
X143999998Y-113514141D01*
X143999998Y-113514141D02*
X143380951Y-113514141D01*
X157857144Y-115457419D02*
X157857144Y-114457419D01*
X157857144Y-114457419D02*
X157476192Y-114457419D01*
X157476192Y-114457419D02*
X157380954Y-114505038D01*
X157380954Y-114505038D02*
X157333335Y-114552657D01*
X157333335Y-114552657D02*
X157285716Y-114647895D01*
X157285716Y-114647895D02*
X157285716Y-114790752D01*
X157285716Y-114790752D02*
X157333335Y-114885990D01*
X157333335Y-114885990D02*
X157380954Y-114933609D01*
X157380954Y-114933609D02*
X157476192Y-114981228D01*
X157476192Y-114981228D02*
X157857144Y-114981228D01*
X156904763Y-115409800D02*
X156761906Y-115457419D01*
X156761906Y-115457419D02*
X156523811Y-115457419D01*
X156523811Y-115457419D02*
X156428573Y-115409800D01*
X156428573Y-115409800D02*
X156380954Y-115362180D01*
X156380954Y-115362180D02*
X156333335Y-115266942D01*
X156333335Y-115266942D02*
X156333335Y-115171704D01*
X156333335Y-115171704D02*
X156380954Y-115076466D01*
X156380954Y-115076466D02*
X156428573Y-115028847D01*
X156428573Y-115028847D02*
X156523811Y-114981228D01*
X156523811Y-114981228D02*
X156714287Y-114933609D01*
X156714287Y-114933609D02*
X156809525Y-114885990D01*
X156809525Y-114885990D02*
X156857144Y-114838371D01*
X156857144Y-114838371D02*
X156904763Y-114743133D01*
X156904763Y-114743133D02*
X156904763Y-114647895D01*
X156904763Y-114647895D02*
X156857144Y-114552657D01*
X156857144Y-114552657D02*
X156809525Y-114505038D01*
X156809525Y-114505038D02*
X156714287Y-114457419D01*
X156714287Y-114457419D02*
X156476192Y-114457419D01*
X156476192Y-114457419D02*
X156333335Y-114505038D01*
X155952382Y-114552657D02*
X155904763Y-114505038D01*
X155904763Y-114505038D02*
X155809525Y-114457419D01*
X155809525Y-114457419D02*
X155571430Y-114457419D01*
X155571430Y-114457419D02*
X155476192Y-114505038D01*
X155476192Y-114505038D02*
X155428573Y-114552657D01*
X155428573Y-114552657D02*
X155380954Y-114647895D01*
X155380954Y-114647895D02*
X155380954Y-114743133D01*
X155380954Y-114743133D02*
X155428573Y-114885990D01*
X155428573Y-114885990D02*
X156000001Y-115457419D01*
X156000001Y-115457419D02*
X155380954Y-115457419D01*
X153761906Y-115409800D02*
X153857144Y-115457419D01*
X153857144Y-115457419D02*
X154047620Y-115457419D01*
X154047620Y-115457419D02*
X154142858Y-115409800D01*
X154142858Y-115409800D02*
X154190477Y-115362180D01*
X154190477Y-115362180D02*
X154238096Y-115266942D01*
X154238096Y-115266942D02*
X154238096Y-114981228D01*
X154238096Y-114981228D02*
X154190477Y-114885990D01*
X154190477Y-114885990D02*
X154142858Y-114838371D01*
X154142858Y-114838371D02*
X154047620Y-114790752D01*
X154047620Y-114790752D02*
X153857144Y-114790752D01*
X153857144Y-114790752D02*
X153761906Y-114838371D01*
X153190477Y-115457419D02*
X153285715Y-115409800D01*
X153285715Y-115409800D02*
X153333334Y-115362180D01*
X153333334Y-115362180D02*
X153380953Y-115266942D01*
X153380953Y-115266942D02*
X153380953Y-114981228D01*
X153380953Y-114981228D02*
X153333334Y-114885990D01*
X153333334Y-114885990D02*
X153285715Y-114838371D01*
X153285715Y-114838371D02*
X153190477Y-114790752D01*
X153190477Y-114790752D02*
X153047620Y-114790752D01*
X153047620Y-114790752D02*
X152952382Y-114838371D01*
X152952382Y-114838371D02*
X152904763Y-114885990D01*
X152904763Y-114885990D02*
X152857144Y-114981228D01*
X152857144Y-114981228D02*
X152857144Y-115266942D01*
X152857144Y-115266942D02*
X152904763Y-115362180D01*
X152904763Y-115362180D02*
X152952382Y-115409800D01*
X152952382Y-115409800D02*
X153047620Y-115457419D01*
X153047620Y-115457419D02*
X153190477Y-115457419D01*
X152428572Y-114790752D02*
X152428572Y-115457419D01*
X152428572Y-114885990D02*
X152380953Y-114838371D01*
X152380953Y-114838371D02*
X152285715Y-114790752D01*
X152285715Y-114790752D02*
X152142858Y-114790752D01*
X152142858Y-114790752D02*
X152047620Y-114838371D01*
X152047620Y-114838371D02*
X152000001Y-114933609D01*
X152000001Y-114933609D02*
X152000001Y-115457419D01*
X151666667Y-114790752D02*
X151285715Y-114790752D01*
X151523810Y-114457419D02*
X151523810Y-115314561D01*
X151523810Y-115314561D02*
X151476191Y-115409800D01*
X151476191Y-115409800D02*
X151380953Y-115457419D01*
X151380953Y-115457419D02*
X151285715Y-115457419D01*
X150952381Y-115457419D02*
X150952381Y-114790752D01*
X150952381Y-114981228D02*
X150904762Y-114885990D01*
X150904762Y-114885990D02*
X150857143Y-114838371D01*
X150857143Y-114838371D02*
X150761905Y-114790752D01*
X150761905Y-114790752D02*
X150666667Y-114790752D01*
X150190476Y-115457419D02*
X150285714Y-115409800D01*
X150285714Y-115409800D02*
X150333333Y-115362180D01*
X150333333Y-115362180D02*
X150380952Y-115266942D01*
X150380952Y-115266942D02*
X150380952Y-114981228D01*
X150380952Y-114981228D02*
X150333333Y-114885990D01*
X150333333Y-114885990D02*
X150285714Y-114838371D01*
X150285714Y-114838371D02*
X150190476Y-114790752D01*
X150190476Y-114790752D02*
X150047619Y-114790752D01*
X150047619Y-114790752D02*
X149952381Y-114838371D01*
X149952381Y-114838371D02*
X149904762Y-114885990D01*
X149904762Y-114885990D02*
X149857143Y-114981228D01*
X149857143Y-114981228D02*
X149857143Y-115266942D01*
X149857143Y-115266942D02*
X149904762Y-115362180D01*
X149904762Y-115362180D02*
X149952381Y-115409800D01*
X149952381Y-115409800D02*
X150047619Y-115457419D01*
X150047619Y-115457419D02*
X150190476Y-115457419D01*
X149285714Y-115457419D02*
X149380952Y-115409800D01*
X149380952Y-115409800D02*
X149428571Y-115314561D01*
X149428571Y-115314561D02*
X149428571Y-114457419D01*
X148761904Y-115457419D02*
X148857142Y-115409800D01*
X148857142Y-115409800D02*
X148904761Y-115314561D01*
X148904761Y-115314561D02*
X148904761Y-114457419D01*
X147999999Y-115409800D02*
X148095237Y-115457419D01*
X148095237Y-115457419D02*
X148285713Y-115457419D01*
X148285713Y-115457419D02*
X148380951Y-115409800D01*
X148380951Y-115409800D02*
X148428570Y-115314561D01*
X148428570Y-115314561D02*
X148428570Y-114933609D01*
X148428570Y-114933609D02*
X148380951Y-114838371D01*
X148380951Y-114838371D02*
X148285713Y-114790752D01*
X148285713Y-114790752D02*
X148095237Y-114790752D01*
X148095237Y-114790752D02*
X147999999Y-114838371D01*
X147999999Y-114838371D02*
X147952380Y-114933609D01*
X147952380Y-114933609D02*
X147952380Y-115028847D01*
X147952380Y-115028847D02*
X148428570Y-115124085D01*
X147523808Y-115457419D02*
X147523808Y-114790752D01*
X147523808Y-114981228D02*
X147476189Y-114885990D01*
X147476189Y-114885990D02*
X147428570Y-114838371D01*
X147428570Y-114838371D02*
X147333332Y-114790752D01*
X147333332Y-114790752D02*
X147238094Y-114790752D01*
X146190474Y-115409800D02*
X146095236Y-115457419D01*
X146095236Y-115457419D02*
X145904760Y-115457419D01*
X145904760Y-115457419D02*
X145809522Y-115409800D01*
X145809522Y-115409800D02*
X145761903Y-115314561D01*
X145761903Y-115314561D02*
X145761903Y-115266942D01*
X145761903Y-115266942D02*
X145809522Y-115171704D01*
X145809522Y-115171704D02*
X145904760Y-115124085D01*
X145904760Y-115124085D02*
X146047617Y-115124085D01*
X146047617Y-115124085D02*
X146142855Y-115076466D01*
X146142855Y-115076466D02*
X146190474Y-114981228D01*
X146190474Y-114981228D02*
X146190474Y-114933609D01*
X146190474Y-114933609D02*
X146142855Y-114838371D01*
X146142855Y-114838371D02*
X146047617Y-114790752D01*
X146047617Y-114790752D02*
X145904760Y-114790752D01*
X145904760Y-114790752D02*
X145809522Y-114838371D01*
X145333331Y-115457419D02*
X145333331Y-114457419D01*
X144904760Y-115457419D02*
X144904760Y-114933609D01*
X144904760Y-114933609D02*
X144952379Y-114838371D01*
X144952379Y-114838371D02*
X145047617Y-114790752D01*
X145047617Y-114790752D02*
X145190474Y-114790752D01*
X145190474Y-114790752D02*
X145285712Y-114838371D01*
X145285712Y-114838371D02*
X145333331Y-114885990D01*
X144428569Y-115457419D02*
X144428569Y-114790752D01*
X144428569Y-114457419D02*
X144476188Y-114505038D01*
X144476188Y-114505038D02*
X144428569Y-114552657D01*
X144428569Y-114552657D02*
X144380950Y-114505038D01*
X144380950Y-114505038D02*
X144428569Y-114457419D01*
X144428569Y-114457419D02*
X144428569Y-114552657D01*
X143571427Y-115409800D02*
X143666665Y-115457419D01*
X143666665Y-115457419D02*
X143857141Y-115457419D01*
X143857141Y-115457419D02*
X143952379Y-115409800D01*
X143952379Y-115409800D02*
X143999998Y-115314561D01*
X143999998Y-115314561D02*
X143999998Y-114933609D01*
X143999998Y-114933609D02*
X143952379Y-114838371D01*
X143952379Y-114838371D02*
X143857141Y-114790752D01*
X143857141Y-114790752D02*
X143666665Y-114790752D01*
X143666665Y-114790752D02*
X143571427Y-114838371D01*
X143571427Y-114838371D02*
X143523808Y-114933609D01*
X143523808Y-114933609D02*
X143523808Y-115028847D01*
X143523808Y-115028847D02*
X143999998Y-115124085D01*
X142952379Y-115457419D02*
X143047617Y-115409800D01*
X143047617Y-115409800D02*
X143095236Y-115314561D01*
X143095236Y-115314561D02*
X143095236Y-114457419D01*
X142142855Y-115457419D02*
X142142855Y-114457419D01*
X142142855Y-115409800D02*
X142238093Y-115457419D01*
X142238093Y-115457419D02*
X142428569Y-115457419D01*
X142428569Y-115457419D02*
X142523807Y-115409800D01*
X142523807Y-115409800D02*
X142571426Y-115362180D01*
X142571426Y-115362180D02*
X142619045Y-115266942D01*
X142619045Y-115266942D02*
X142619045Y-114981228D01*
X142619045Y-114981228D02*
X142571426Y-114885990D01*
X142571426Y-114885990D02*
X142523807Y-114838371D01*
X142523807Y-114838371D02*
X142428569Y-114790752D01*
X142428569Y-114790752D02*
X142238093Y-114790752D01*
X142238093Y-114790752D02*
X142142855Y-114838371D01*
X152642856Y-116067363D02*
X152309523Y-117067363D01*
X152309523Y-117067363D02*
X151976190Y-116067363D01*
X151261904Y-117019744D02*
X151357142Y-117067363D01*
X151357142Y-117067363D02*
X151547618Y-117067363D01*
X151547618Y-117067363D02*
X151642856Y-117019744D01*
X151642856Y-117019744D02*
X151690475Y-116924505D01*
X151690475Y-116924505D02*
X151690475Y-116543553D01*
X151690475Y-116543553D02*
X151642856Y-116448315D01*
X151642856Y-116448315D02*
X151547618Y-116400696D01*
X151547618Y-116400696D02*
X151357142Y-116400696D01*
X151357142Y-116400696D02*
X151261904Y-116448315D01*
X151261904Y-116448315D02*
X151214285Y-116543553D01*
X151214285Y-116543553D02*
X151214285Y-116638791D01*
X151214285Y-116638791D02*
X151690475Y-116734029D01*
X150785713Y-117067363D02*
X150785713Y-116400696D01*
X150785713Y-116591172D02*
X150738094Y-116495934D01*
X150738094Y-116495934D02*
X150690475Y-116448315D01*
X150690475Y-116448315D02*
X150595237Y-116400696D01*
X150595237Y-116400696D02*
X150499999Y-116400696D01*
X148880951Y-117067363D02*
X149452379Y-117067363D01*
X149166665Y-117067363D02*
X149166665Y-116067363D01*
X149166665Y-116067363D02*
X149261903Y-116210220D01*
X149261903Y-116210220D02*
X149357141Y-116305458D01*
X149357141Y-116305458D02*
X149452379Y-116353077D01*
X148452379Y-116972124D02*
X148404760Y-117019744D01*
X148404760Y-117019744D02*
X148452379Y-117067363D01*
X148452379Y-117067363D02*
X148499998Y-117019744D01*
X148499998Y-117019744D02*
X148452379Y-116972124D01*
X148452379Y-116972124D02*
X148452379Y-117067363D01*
X147785713Y-116067363D02*
X147690475Y-116067363D01*
X147690475Y-116067363D02*
X147595237Y-116114982D01*
X147595237Y-116114982D02*
X147547618Y-116162601D01*
X147547618Y-116162601D02*
X147499999Y-116257839D01*
X147499999Y-116257839D02*
X147452380Y-116448315D01*
X147452380Y-116448315D02*
X147452380Y-116686410D01*
X147452380Y-116686410D02*
X147499999Y-116876886D01*
X147499999Y-116876886D02*
X147547618Y-116972124D01*
X147547618Y-116972124D02*
X147595237Y-117019744D01*
X147595237Y-117019744D02*
X147690475Y-117067363D01*
X147690475Y-117067363D02*
X147785713Y-117067363D01*
X147785713Y-117067363D02*
X147880951Y-117019744D01*
X147880951Y-117019744D02*
X147928570Y-116972124D01*
X147928570Y-116972124D02*
X147976189Y-116876886D01*
X147976189Y-116876886D02*
X148023808Y-116686410D01*
X148023808Y-116686410D02*
X148023808Y-116448315D01*
X148023808Y-116448315D02*
X147976189Y-116257839D01*
X147976189Y-116257839D02*
X147928570Y-116162601D01*
X147928570Y-116162601D02*
X147880951Y-116114982D01*
X147880951Y-116114982D02*
X147785713Y-116067363D01*
D11*
X173193333Y-126834819D02*
X173193333Y-127549104D01*
X173193333Y-127549104D02*
X173240952Y-127691961D01*
X173240952Y-127691961D02*
X173336190Y-127787200D01*
X173336190Y-127787200D02*
X173479047Y-127834819D01*
X173479047Y-127834819D02*
X173574285Y-127834819D01*
X172669523Y-127834819D02*
X172479047Y-127834819D01*
X172479047Y-127834819D02*
X172383809Y-127787200D01*
X172383809Y-127787200D02*
X172336190Y-127739580D01*
X172336190Y-127739580D02*
X172240952Y-127596723D01*
X172240952Y-127596723D02*
X172193333Y-127406247D01*
X172193333Y-127406247D02*
X172193333Y-127025295D01*
X172193333Y-127025295D02*
X172240952Y-126930057D01*
X172240952Y-126930057D02*
X172288571Y-126882438D01*
X172288571Y-126882438D02*
X172383809Y-126834819D01*
X172383809Y-126834819D02*
X172574285Y-126834819D01*
X172574285Y-126834819D02*
X172669523Y-126882438D01*
X172669523Y-126882438D02*
X172717142Y-126930057D01*
X172717142Y-126930057D02*
X172764761Y-127025295D01*
X172764761Y-127025295D02*
X172764761Y-127263390D01*
X172764761Y-127263390D02*
X172717142Y-127358628D01*
X172717142Y-127358628D02*
X172669523Y-127406247D01*
X172669523Y-127406247D02*
X172574285Y-127453866D01*
X172574285Y-127453866D02*
X172383809Y-127453866D01*
X172383809Y-127453866D02*
X172288571Y-127406247D01*
X172288571Y-127406247D02*
X172240952Y-127358628D01*
X172240952Y-127358628D02*
X172193333Y-127263390D01*
X127513333Y-126834819D02*
X127513333Y-127549104D01*
X127513333Y-127549104D02*
X127560952Y-127691961D01*
X127560952Y-127691961D02*
X127656190Y-127787200D01*
X127656190Y-127787200D02*
X127799047Y-127834819D01*
X127799047Y-127834819D02*
X127894285Y-127834819D01*
X126894285Y-127263390D02*
X126989523Y-127215771D01*
X126989523Y-127215771D02*
X127037142Y-127168152D01*
X127037142Y-127168152D02*
X127084761Y-127072914D01*
X127084761Y-127072914D02*
X127084761Y-127025295D01*
X127084761Y-127025295D02*
X127037142Y-126930057D01*
X127037142Y-126930057D02*
X126989523Y-126882438D01*
X126989523Y-126882438D02*
X126894285Y-126834819D01*
X126894285Y-126834819D02*
X126703809Y-126834819D01*
X126703809Y-126834819D02*
X126608571Y-126882438D01*
X126608571Y-126882438D02*
X126560952Y-126930057D01*
X126560952Y-126930057D02*
X126513333Y-127025295D01*
X126513333Y-127025295D02*
X126513333Y-127072914D01*
X126513333Y-127072914D02*
X126560952Y-127168152D01*
X126560952Y-127168152D02*
X126608571Y-127215771D01*
X126608571Y-127215771D02*
X126703809Y-127263390D01*
X126703809Y-127263390D02*
X126894285Y-127263390D01*
X126894285Y-127263390D02*
X126989523Y-127311009D01*
X126989523Y-127311009D02*
X127037142Y-127358628D01*
X127037142Y-127358628D02*
X127084761Y-127453866D01*
X127084761Y-127453866D02*
X127084761Y-127644342D01*
X127084761Y-127644342D02*
X127037142Y-127739580D01*
X127037142Y-127739580D02*
X126989523Y-127787200D01*
X126989523Y-127787200D02*
X126894285Y-127834819D01*
X126894285Y-127834819D02*
X126703809Y-127834819D01*
X126703809Y-127834819D02*
X126608571Y-127787200D01*
X126608571Y-127787200D02*
X126560952Y-127739580D01*
X126560952Y-127739580D02*
X126513333Y-127644342D01*
X126513333Y-127644342D02*
X126513333Y-127453866D01*
X126513333Y-127453866D02*
X126560952Y-127358628D01*
X126560952Y-127358628D02*
X126608571Y-127311009D01*
X126608571Y-127311009D02*
X126703809Y-127263390D01*
X139454819Y-88836666D02*
X140169104Y-88836666D01*
X140169104Y-88836666D02*
X140311961Y-88789047D01*
X140311961Y-88789047D02*
X140407200Y-88693809D01*
X140407200Y-88693809D02*
X140454819Y-88550952D01*
X140454819Y-88550952D02*
X140454819Y-88455714D01*
X140454819Y-89836666D02*
X140454819Y-89265238D01*
X140454819Y-89550952D02*
X139454819Y-89550952D01*
X139454819Y-89550952D02*
X139597676Y-89455714D01*
X139597676Y-89455714D02*
X139692914Y-89360476D01*
X139692914Y-89360476D02*
X139740533Y-89265238D01*
D12*
%TO.C,J9*%
X170210000Y-126380000D02*
X171590000Y-126380000D01*
X170210000Y-125000000D02*
X170210000Y-126380000D01*
X170210000Y-123730000D02*
X170210000Y-93140000D01*
X170210000Y-123730000D02*
X172860000Y-123730000D01*
X170210000Y-93140000D02*
X175510000Y-93140000D01*
X172860000Y-126380000D02*
X175510000Y-126380000D01*
X172860000Y-123730000D02*
X172860000Y-126380000D01*
X175510000Y-126380000D02*
X175510000Y-93140000D01*
%TO.C,J8*%
X124530000Y-126380000D02*
X125910000Y-126380000D01*
X124530000Y-125000000D02*
X124530000Y-126380000D01*
X124530000Y-123730000D02*
X124530000Y-93140000D01*
X124530000Y-123730000D02*
X127180000Y-123730000D01*
X124530000Y-93140000D02*
X129830000Y-93140000D01*
X127180000Y-126380000D02*
X129830000Y-126380000D01*
X127180000Y-123730000D02*
X127180000Y-126380000D01*
X129830000Y-126380000D02*
X129830000Y-93140000D01*
%TO.C,J1*%
X141000000Y-87790000D02*
X141000000Y-89170000D01*
X142380000Y-87790000D02*
X141000000Y-87790000D01*
X143650000Y-87790000D02*
X159000000Y-87790000D01*
X143650000Y-87790000D02*
X143650000Y-90550000D01*
X159000000Y-87790000D02*
X159000000Y-90550000D01*
X143650000Y-90550000D02*
X159000000Y-90550000D01*
%TD*%
M02*
